<?xml version="1.0" standalone="no"?>
<!DOCTYPE svg PUBLIC "-//W3C//DTD SVG 20010904//EN"
 "http://www.w3.org/TR/2001/REC-SVG-20010904/DTD/svg10.dtd">
<svg version="1.0" xmlns="http://www.w3.org/2000/svg"
 width="460.000000pt" height="460.000000pt" viewBox="0 0 460.000000 460.000000"
 preserveAspectRatio="xMidYMid meet">
<metadata>
Created by potrace 1.14, written by Peter Selinger 2001-2017
</metadata>
<g transform="translate(0.000000,460.000000) scale(0.100000,-0.100000)"
fill="#000000" stroke="none">
<path d="M0 4467 l0 -133 198 -2 c108 -1 479 -2 825 -2 369 0 637 -4 652 -10
16 -6 25 -6 25 0 0 6 5 10 10 10 7 0 7 -6 0 -19 -5 -11 -10 -84 -10 -164 0
-117 -3 -147 -15 -157 -37 -31 -257 -24 -275 9 -5 10 -10 81 -11 159 l-1 140
-136 1 -137 2 3 -149 c4 -193 11 -185 -154 -180 l-123 3 -11 -45 c-7 -25 -14
-53 -17 -63 -2 -9 -9 -15 -14 -12 -5 4 -9 76 -9 161 0 128 -3 156 -15 160 -23
9 -18 40 10 70 41 45 34 52 -53 52 l-78 -1 4 -144 c6 -190 10 -185 -148 -182
-64 1 -122 -1 -129 -6 -9 -5 -12 -21 -7 -51 6 -45 -10 -72 -18 -32 -3 13 -7
83 -8 156 -2 83 -7 135 -14 140 -18 11 -24 62 -8 62 9 0 14 11 14 30 l0 30
-79 0 -79 0 5 -155 6 -154 -27 -11 c-15 -5 -61 -10 -102 -10 l-74 0 0 -75 c0
-106 2 -107 227 -109 174 -1 177 -1 188 21 l12 23 23 -25 c23 -25 24 -25 206
-25 158 0 183 2 188 16 6 15 8 15 31 0 18 -12 50 -16 128 -16 85 0 107 -3 118
-16 10 -12 15 -58 17 -153 4 -121 2 -138 -13 -151 -15 -13 -74 -15 -354 -15
-185 0 -348 3 -362 7 -25 7 -26 11 -32 103 -3 57 -12 110 -23 134 -16 36 -25
43 -78 61 -76 25 -77 25 -66 -6 6 -14 10 -86 10 -160 0 -115 -2 -136 -16 -141
-9 -3 -59 -6 -111 -7 l-94 -1 5 -80 c14 -195 17 -358 7 -368 -6 -6 -11 -37
-11 -69 l0 -58 70 0 c85 0 82 7 78 -179 -3 -152 0 -146 -90 -156 l-58 -6 0
-246 0 -245 87 2 c49 1 113 2 143 0 l55 -2 -55 -12 c-30 -7 -59 -8 -65 -4 -5
4 -44 8 -87 8 -76 0 -78 -1 -78 -24 0 -19 6 -25 28 -28 l27 -3 2 -120 c2 -148
-3 -174 -33 -187 -18 -9 -24 -19 -24 -45 l0 -34 628 5 c436 4 610 2 572 -5
-30 -5 -65 -8 -77 -6 -12 2 -24 -1 -27 -7 -3 -7 -8 -6 -15 4 -9 12 -12 13 -20
1 -7 -11 -9 -11 -14 0 -5 12 -7 12 -15 0 -8 -11 -10 -11 -14 0 -4 11 -10 11
-30 2 -16 -7 -85 -12 -178 -12 -84 -1 -155 -3 -159 -5 -4 -3 -130 -6 -281 -7
-151 -2 -296 -5 -323 -7 l-47 -4 0 -149 c0 -82 3 -148 8 -148 4 1 18 1 31 0
28 -1 24 -10 -9 -16 -12 -2 -25 -7 -29 -10 -3 -4 6 -4 20 -2 17 4 26 1 26 -8
0 -8 -3 -14 -6 -13 -24 2 -37 -5 -37 -22 0 -25 13 -26 20 -2 8 24 36 24 36 0
0 -10 4 -18 10 -18 6 0 6 9 0 26 -6 14 -10 26 -10 27 0 2 21 3 48 3 26 0 47 4
47 9 0 6 4 16 8 23 5 6 5 17 2 22 -3 6 -1 10 4 10 6 0 11 -4 11 -9 0 -5 7 -17
16 -25 14 -14 14 -16 0 -16 -19 0 -38 -33 -31 -53 10 -24 33 -15 39 15 5 24
10 28 26 23 15 -5 20 -2 20 14 0 17 4 18 27 12 16 -4 35 -6 43 -4 13 4 13 3 1
-5 -8 -6 -26 -8 -40 -7 -14 2 -20 2 -13 -1 6 -3 12 -17 12 -30 0 -13 4 -24 10
-24 5 0 9 3 9 8 -4 22 3 34 16 29 8 -4 18 -1 22 6 5 8 10 3 14 -13 6 -22 7
-21 8 10 1 33 2 33 18 17 16 -16 16 -19 3 -27 -8 -5 -13 -10 -10 -11 3 0 12
-2 21 -4 18 -3 21 25 4 37 -5 4 -6 10 -2 15 5 4 16 -3 26 -16 16 -20 21 -22
40 -11 13 6 20 14 18 17 -3 2 -15 -1 -27 -7 -18 -10 -21 -9 -18 2 3 8 21 13
49 14 24 1 36 -1 27 -3 -25 -6 -23 -22 2 -20 18 1 24 10 21 29 0 5 4 8 9 8 9
0 15 -30 11 -53 -1 -5 3 -6 9 -2 6 3 7 11 4 17 -4 6 0 14 7 19 12 8 12 11 -1
19 -13 8 -12 10 3 10 10 0 20 -7 24 -16 5 -13 7 -13 14 -2 7 10 9 10 9 -2 1
-12 3 -11 14 3 13 16 14 16 20 -8 4 -14 13 -25 20 -25 8 0 17 -8 19 -17 4 -17
5 -17 6 0 1 14 6 17 23 12 18 -5 20 -4 8 4 -8 6 -26 11 -40 12 -14 0 -20 3
-14 5 7 3 9 14 6 26 -3 14 -1 19 6 14 7 -4 12 -14 12 -22 0 -8 5 -14 11 -14 5
0 7 4 4 10 -3 6 1 7 9 4 9 -3 16 -1 16 5 0 6 7 11 15 11 8 0 15 -7 15 -15 0
-19 14 -19 30 0 16 19 30 19 30 -1 0 -8 5 -12 10 -9 6 4 8 10 5 15 -3 5 0 12
6 16 8 5 10 1 7 -14 -4 -14 -1 -22 11 -25 11 -3 10 -5 -5 -6 -17 -1 -22 -7
-20 -25 1 -25 16 -26 16 0 0 8 8 14 19 14 14 0 17 6 13 28 -4 26 -4 26 12 7
10 -13 15 -15 16 -6 0 11 3 11 16 0 15 -12 16 -11 10 9 -5 13 -3 22 3 22 6 0
11 -18 11 -40 0 -35 2 -39 14 -28 8 7 10 15 5 16 -5 2 -9 8 -9 13 0 6 5 7 10
4 6 -3 10 -1 10 6 0 7 9 2 20 -11 15 -17 17 -26 9 -37 -7 -8 -8 -13 -1 -13 13
0 23 26 16 45 -4 8 -2 15 4 15 5 0 12 -9 15 -21 5 -17 9 -19 25 -10 11 6 23 7
27 3 4 -4 2 3 -6 15 -14 24 -29 21 -30 -5 0 -12 -3 -11 -9 6 -5 12 -17 22 -25
22 -15 0 -15 2 -1 15 16 16 27 19 25 8 -4 -26 2 -35 14 -24 8 6 17 8 20 4 4
-3 7 7 8 23 l1 29 9 -31 c5 -18 16 -34 24 -38 12 -4 15 3 16 32 l1 37 8 -33
c4 -18 11 -36 15 -40 5 -4 6 0 3 8 -4 12 4 15 41 16 39 2 42 1 16 -6 -16 -4
-25 -9 -20 -10 32 -8 55 -6 59 6 3 8 13 14 21 14 9 0 13 -5 10 -10 -4 -6 -11
-8 -16 -5 -5 4 -9 1 -9 -5 0 -7 8 -9 20 -5 11 4 20 2 20 -4 0 -6 -8 -11 -17
-12 -11 0 -13 -3 -5 -6 6 -2 12 -11 12 -18 0 -8 5 -17 12 -21 8 -5 9 -2 5 9
-4 10 -2 17 4 17 6 0 9 9 6 19 -3 15 0 19 14 18 22 -1 24 -8 8 -24 -9 -9 -8
-11 4 -9 25 3 30 13 17 36 -6 12 -9 24 -6 27 3 3 10 -5 15 -18 l10 -24 1 25 2
25 7 -25 c4 -15 3 -28 -3 -33 -8 -6 -7 -10 2 -14 6 -2 12 -12 12 -21 -1 -15
-2 -15 -15 1 -13 18 -14 18 -24 -2 -14 -25 -14 -31 0 -31 5 0 8 4 4 9 -12 20
15 20 29 0 14 -21 14 -20 14 12 -1 62 1 71 15 63 8 -6 8 -3 -1 9 -17 21 -6 42
12 24 8 -6 12 -15 10 -18 -2 -4 5 -9 16 -12 21 -5 28 9 8 15 -9 3 -9 6 0 12 7
4 12 2 12 -4 0 -6 5 -8 12 -4 7 4 8 3 4 -4 -6 -11 20 -18 48 -13 5 1 6 -7 3
-18 -5 -19 14 -24 30 -6 4 4 3 5 -4 1 -7 -4 -13 2 -15 16 -2 13 -9 22 -16 21
-6 -2 -12 1 -12 6 0 13 29 35 37 27 3 -3 1 -6 -5 -6 -7 0 -12 -5 -12 -11 0 -6
7 -9 15 -6 8 4 17 2 20 -3 3 -4 -1 -11 -7 -13 -9 -4 -7 -6 3 -6 12 -1 15 -9
13 -29 l-4 -27 12 30 c10 23 18 29 36 27 13 -2 22 2 22 10 0 10 3 9 10 -2 6
-10 10 -11 10 -2 0 22 17 12 17 -10 1 -13 1 -32 2 -43 2 -19 3 -18 11 3 5 12
15 22 21 22 7 0 5 10 -6 26 -16 25 -16 26 2 22 10 -2 17 -10 16 -16 -2 -7 2
-12 8 -12 5 0 7 -4 4 -10 -3 -5 -2 -17 3 -26 8 -15 10 -15 16 1 3 9 4 21 0 26
-3 5 4 9 16 9 12 0 18 -4 15 -10 -3 -5 1 -10 10 -10 9 0 13 5 10 10 -3 6 1 10
9 10 8 0 20 -8 25 -18 6 -9 11 -12 11 -5 0 6 -4 15 -10 18 -16 10 -12 35 5 29
8 -4 12 -10 9 -15 -3 -5 7 -9 23 -10 15 0 22 -3 16 -6 -7 -2 -13 -9 -13 -14 0
-6 4 -8 9 -4 5 3 11 -3 13 -12 3 -11 6 -5 9 14 5 28 2 33 -13 33 -11 0 -26 6
-33 14 -12 12 -12 15 1 20 9 3 23 6 32 6 16 -1 16 -2 0 -13 -14 -11 -10 -13
27 -13 24 1 41 4 39 8 -3 5 0 8 5 8 6 0 11 -4 11 -10 0 -5 5 -10 11 -10 7 0 9
9 6 21 -4 15 -2 18 7 10 9 -7 16 -7 25 2 10 9 11 8 6 -5 -5 -13 -2 -18 8 -18
9 0 21 8 27 18 11 16 11 16 6 0 -3 -10 -1 -18 4 -18 6 0 10 -8 11 -17 0 -13 3
-11 10 6 7 17 6 27 -2 31 -6 5 -1 10 15 14 17 4 23 11 20 21 -5 11 1 15 21 15
14 0 24 -4 20 -10 -3 -5 -13 -6 -22 -3 -10 4 -14 2 -9 -5 3 -6 2 -13 -4 -17
-6 -4 -5 -13 2 -25 13 -21 32 -16 24 6 -3 8 1 14 9 14 14 0 19 12 16 33 -3 19
31 4 39 -19 11 -29 30 -24 31 9 1 20 2 20 9 -3 4 -14 8 -20 9 -13 1 6 10 9 21
6 31 -8 24 -19 -10 -17 -34 2 -55 -22 -39 -47 7 -12 9 -12 10 1 1 8 1 18 0 22
-1 11 31 16 97 14 34 -1 62 1 62 5 0 5 -16 7 -35 5 -20 -1 -32 1 -27 6 5 5 54
11 108 12 124 5 122 4 104 16 -12 8 -9 10 11 10 27 0 45 23 32 42 -3 7 -1 8 6
4 6 -4 9 -16 6 -27 -5 -14 -2 -17 9 -13 8 3 12 13 9 22 -4 13 0 12 14 -4 10
-11 25 -20 33 -19 8 1 25 3 38 3 12 1 22 7 22 12 0 6 -11 8 -25 4 -14 -3 -25
-2 -25 3 0 16 229 11 239 -6 7 -11 9 -11 14 0 4 12 7 11 16 -1 9 -13 11 -13
11 0 0 11 3 11 12 2 14 -14 48 -16 48 -3 0 5 -9 7 -20 4 -11 -3 -20 0 -20 6 0
17 60 13 67 -5 3 -9 8 -12 12 -5 4 5 25 11 48 12 32 2 40 6 35 18 -5 13 -2 12
12 -2 20 -20 35 -15 18 6 -8 10 -6 13 9 13 14 0 17 -5 13 -18 -4 -13 -1 -16
11 -12 10 4 14 13 10 22 -3 9 -3 13 1 9 4 -4 14 -1 23 6 14 10 14 10 3 -4 -9
-12 -9 -24 -3 -40 8 -21 16 -12 12 14 -2 12 11 8 31 -10 16 -15 21 -15 28 -3
12 19 2 28 -11 10 -9 -13 -10 -13 -6 0 2 8 14 14 26 13 11 -2 21 3 22 10 0 6
7 -1 14 -18 9 -19 14 -24 15 -12 0 10 8 17 21 17 11 0 18 4 14 9 -3 6 -14 8
-25 6 -11 -2 -20 1 -20 6 0 5 6 9 13 8 27 -3 42 1 30 9 -8 5 1 8 23 9 26 1 34
-2 30 -13 -4 -9 2 -15 17 -16 32 -2 48 -5 82 -13 6 -1 16 -3 24 -3 11 -2 11
-5 0 -19 -13 -16 -12 -17 3 -5 12 10 22 11 37 3 14 -8 22 -8 27 1 4 7 3 8 -4
4 -8 -5 -12 1 -11 16 0 13 3 17 6 11 2 -7 9 -13 14 -13 6 0 7 4 4 10 -3 6 1 7
9 4 9 -3 16 -10 16 -16 0 -5 -5 -6 -12 -2 -7 4 -8 3 -4 -5 4 -6 11 -9 16 -6 5
3 12 -4 15 -16 5 -16 10 -18 18 -10 7 7 12 19 12 29 0 9 7 17 15 17 8 0 14 -6
13 -12 -2 -7 3 -13 10 -13 16 0 50 -57 42 -70 -3 -6 1 -10 9 -10 15 0 21 -12
17 -33 -1 -4 6 -10 14 -13 8 -4 15 -12 15 -20 0 -8 5 -14 10 -14 6 0 10 -8 9
-17 0 -11 -3 -13 -6 -5 -2 6 -14 12 -26 11 -12 0 -16 -3 -9 -6 6 -2 12 -9 12
-14 0 -6 -6 -7 -12 -3 -10 6 -10 5 -1 -8 7 -8 9 -19 5 -24 -4 -5 2 -1 13 8 21
17 21 17 21 -17 0 -25 -5 -35 -15 -35 -14 -1 -13 -3 1 -14 10 -7 15 -16 12
-19 -4 -3 -13 1 -21 9 -11 10 -19 12 -27 4 -7 -5 -16 -7 -19 -3 -4 3 -7 1 -7
-5 0 -7 9 -12 21 -12 19 0 49 -21 49 -34 0 -3 -8 -3 -17 1 -14 5 -15 3 -6 -7
6 -7 9 -19 6 -26 -9 -25 -20 -15 -18 19 0 21 -4 34 -12 34 -7 0 -11 -2 -8 -5
2 -3 0 -13 -5 -23 -7 -12 -6 -19 3 -22 6 -2 -3 -4 -21 -5 -18 0 -30 3 -28 7 3
4 1 13 -3 19 -6 10 -11 9 -21 -3 -11 -13 -10 -14 5 -9 13 5 16 4 11 -4 -8 -13
52 -44 67 -35 4 2 5 -8 2 -24 l-6 -28 15 25 c8 14 15 21 16 17 0 -13 -33 -67
-41 -67 -4 0 -6 16 -5 35 1 37 -7 45 -22 19 -8 -14 -11 -14 -25 7 -21 30 -34
17 -14 -14 12 -19 13 -24 2 -24 -8 0 -12 4 -9 9 3 4 -2 11 -10 14 -9 3 -14 9
-11 13 2 4 -2 8 -10 8 -13 0 -13 -4 1 -25 15 -22 15 -24 1 -19 -10 4 -18 -1
-22 -14 -4 -10 -11 -17 -16 -14 -5 3 -6 -1 -3 -10 6 -14 8 -14 20 2 11 16 13
15 12 -14 -1 -18 -4 -33 -9 -33 -4 0 -7 -21 -7 -46 0 -26 -6 -50 -12 -54 -8
-5 -7 -9 4 -13 15 -6 20 8 19 51 -1 7 4 11 11 9 6 -3 10 -10 8 -17 -3 -11 0
-11 12 0 13 10 19 10 31 0 12 -10 15 -10 15 0 0 8 2 11 5 8 3 -3 3 -13 -1 -22
-5 -13 -9 -14 -18 -4 -6 7 -10 11 -9 9 2 -2 -2 -10 -8 -18 -9 -9 -8 -13 0 -13
6 0 3 -8 -6 -18 -17 -17 -18 -16 -24 8 -7 27 -11 -20 -13 -157 -1 -39 -4 -75
-8 -79 -5 -4 -8 21 -8 55 0 40 -4 60 -10 56 -6 -4 -9 -32 -7 -66 2 -32 0 -59
-5 -59 -11 0 -14 74 -7 179 2 25 -1 46 -7 48 -7 2 -12 -21 -14 -59 -2 -35 -4
-76 -5 -93 -1 -16 3 -38 7 -47 5 -10 5 -18 0 -18 -5 0 -7 -15 -6 -32 l3 -33
-7 30 c-4 17 -8 56 -7 88 0 31 -3 57 -7 57 -8 0 -12 -40 -9 -69 2 -7 -2 -10
-8 -6 -6 3 -11 24 -11 46 0 22 4 38 9 34 5 -3 13 0 18 7 12 20 14 48 3 48 -6
0 -10 -9 -10 -20 0 -11 -4 -20 -9 -20 -4 0 -8 20 -8 45 0 25 -3 48 -7 52 -6 7
-9 -46 -8 -170 0 -44 -2 -76 -6 -72 -4 3 -7 47 -8 96 -1 50 -5 93 -8 96 -6 6
-7 -3 -10 -84 -2 -43 -13 -66 -27 -57 -7 4 -9 -10 -6 -38 3 -25 1 -51 -4 -59
-7 -10 -9 -3 -7 23 1 20 -1 40 -4 44 -4 3 -4 20 -1 38 6 30 6 30 -11 13 -12
-11 -15 -24 -10 -35 11 -27 12 -36 3 -57 -6 -16 -8 -14 -8 12 -1 26 -4 30 -21
26 -23 -6 -28 12 -5 21 8 3 12 12 9 21 -4 8 1 17 10 21 9 3 13 11 10 16 -4 6
-10 5 -15 -3 -6 -10 -9 -6 -9 14 0 15 5 27 10 27 6 0 5 6 -2 14 -9 9 -15 10
-20 3 -3 -6 -8 5 -11 24 -3 29 -4 27 -5 -13 -1 -26 3 -50 8 -53 6 -3 10 -16 9
-28 0 -15 -2 -17 -6 -7 -4 8 -12 20 -19 27 -10 10 -13 10 -17 -1 -3 -7 -18
-12 -34 -11 -18 2 -20 1 -5 -2 12 -2 20 -8 17 -13 -3 -5 5 -16 17 -25 l23 -17
-23 7 c-13 4 -29 2 -35 -4 -24 -19 -40 4 -35 51 3 23 1 52 -3 63 -5 14 -8 3
-9 -35 -2 -30 -2 -58 -1 -62 2 -14 -20 -8 -25 7 -4 8 -10 12 -15 9 -13 -8 -11
-24 2 -21 6 1 14 -4 17 -12 3 -10 0 -12 -12 -8 -9 4 -16 4 -16 1 0 -2 10 -9
23 -14 22 -9 22 -9 -3 -9 -15 -1 -31 4 -38 11 -9 9 -12 8 -12 -5 0 -9 8 -17
18 -18 10 0 12 -3 5 -6 -7 -2 -13 -11 -13 -20 0 -8 -6 -13 -12 -11 -9 3 -13
27 -14 71 0 37 -3 69 -7 73 -3 4 -2 15 3 24 7 12 6 21 -3 28 -9 8 -12 -10 -11
-82 0 -60 -3 -93 -10 -93 -7 0 -10 17 -9 41 l2 41 -8 -35 c-4 -20 -11 -41 -15
-48 -4 -7 -2 -12 3 -12 6 0 11 -5 11 -10 0 -7 -7 -7 -20 0 -16 8 -20 8 -18 -2
2 -7 11 -16 21 -20 9 -4 17 -13 16 -20 0 -10 -2 -10 -6 0 -2 6 -13 12 -24 12
-10 0 -20 5 -20 10 -3 20 -4 25 -12 37 -4 7 -7 37 -6 68 1 30 -1 58 -4 62 -4
3 -8 -14 -9 -38 0 -24 -1 -55 -2 -69 -1 -20 -5 -24 -24 -22 -20 3 -23 0 -17
-17 4 -12 2 -21 -4 -21 -6 0 -11 9 -11 20 0 11 -4 20 -9 20 -9 0 -6 -69 4 -97
6 -17 -8 -24 -25 -12 -12 7 -12 9 -1 9 11 0 11 3 0 17 -10 11 -10 14 -1 9 6
-4 12 -2 12 3 0 6 -4 11 -10 11 -5 0 -9 16 -7 35 2 31 8 39 29 36 8 -1 4 26
-5 35 -4 4 -7 0 -7 -9 0 -9 -4 -17 -10 -17 -5 0 -10 19 -11 43 0 31 -2 37 -8
22 -5 -11 -7 -37 -5 -58 2 -20 0 -37 -4 -37 -4 0 -13 -9 -20 -20 -10 -17 -10
-20 4 -20 8 0 13 4 9 9 -3 5 -2 12 3 15 4 2 8 -4 9 -14 1 -10 -7 -20 -18 -23
-10 -3 -19 -13 -20 -24 0 -10 -6 -2 -12 17 -8 21 -9 38 -3 41 21 16 -4 39 -41
38 -21 0 -32 -3 -25 -6 6 -2 12 -9 12 -14 0 -6 -4 -8 -8 -5 -5 3 -8 -13 -8
-34 1 -22 -2 -40 -6 -40 -8 0 -12 29 -10 61 1 13 -4 16 -21 11 -20 -5 -20 -4
-8 11 7 9 9 17 4 17 -5 0 -9 9 -10 20 -1 11 2 20 8 20 5 0 9 -7 9 -15 0 -8 5
-15 10 -15 13 0 13 17 -1 26 -8 4 -7 9 2 15 10 6 6 8 -11 7 -21 -3 -25 1 -22
22 2 14 1 22 -4 18 -4 -5 -7 -26 -6 -49 1 -23 -1 -46 -5 -53 -12 -18 -12 -37
-1 -30 6 4 8 1 6 -7 -3 -8 -14 -13 -24 -12 -10 1 -22 -3 -25 -9 -4 -6 -10 9
-15 33 l-8 44 -8 -40 c-11 -53 -11 -57 -3 -80 6 -18 5 -18 -5 -3 -6 10 -20 18
-30 18 -11 0 -20 3 -21 8 0 4 -2 19 -4 33 -3 22 0 26 16 22 10 -3 19 0 19 6 0
6 -7 8 -17 4 -12 -5 -15 -2 -11 9 4 8 1 15 -7 15 -8 0 -13 -5 -12 -11 1 -6
-10 -11 -26 -12 -15 -1 -25 1 -22 4 3 3 0 11 -6 19 -9 10 -8 13 5 13 14 0 15
2 4 14 -17 18 -18 16 -21 -28 -3 -35 -2 -36 30 -36 18 0 33 -5 33 -11 0 -5 -4
-7 -10 -4 -6 3 -10 -4 -10 -17 0 -18 2 -20 10 -8 8 13 10 13 10 -1 0 -9 -7
-19 -15 -23 -11 -4 -15 2 -15 25 0 17 -4 28 -8 25 -5 -3 -7 -19 -6 -35 1 -17
-2 -34 -7 -37 -5 -3 -9 13 -9 35 0 27 -4 41 -13 41 -9 0 -12 11 -9 36 3 23 1
34 -5 31 -6 -4 -9 -18 -7 -33 2 -19 -1 -24 -12 -20 -8 3 -14 1 -14 -4 0 -6 6
-10 14 -10 10 0 13 -9 9 -33 -6 -38 -13 -49 -13 -19 0 12 -5 22 -11 22 -7 0
-10 15 -7 40 3 31 0 39 -10 35 -8 -3 -17 -5 -20 -5 -4 0 -1 -4 7 -9 10 -6 11
-17 5 -37 l-8 -29 -5 30 c-4 28 -5 26 -17 -20 -7 -27 -13 -40 -13 -27 -1 13
-5 20 -11 17 -14 -9 -12 28 2 44 10 11 10 13 1 7 -7 -4 -13 -2 -13 3 0 6 5 11
11 11 8 0 8 4 0 14 -10 12 -8 14 14 12 14 -2 28 1 31 6 4 6 -6 8 -22 6 -18 -2
-29 2 -30 10 -1 6 -2 17 -3 22 -1 7 -6 6 -15 -2 -11 -11 -11 -15 3 -26 14 -12
14 -13 -4 -7 -16 5 -18 4 -7 -6 6 -7 12 -21 12 -31 0 -14 -8 -18 -36 -18 -28
0 -35 3 -30 15 3 8 1 15 -4 15 -6 0 -10 -9 -10 -20 0 -11 -6 -18 -12 -16 -7 1
-10 1 -7 -1 7 -4 2 -63 -6 -71 -3 -3 -5 7 -5 21 0 15 -3 27 -7 27 -5 0 -9 11
-9 25 -1 16 2 22 10 18 7 -4 6 -1 -1 9 -7 8 -10 18 -6 21 3 4 0 7 -8 7 -9 0
-15 -10 -14 -26 0 -18 -6 -28 -17 -30 -10 -1 -18 2 -18 7 0 5 3 9 8 9 8 0 8
57 0 65 -3 3 -8 -16 -12 -43 -3 -27 -15 -59 -26 -72 -18 -21 -19 -21 -17 -2 0
12 5 18 9 16 4 -3 8 0 8 5 0 6 -7 11 -15 11 -19 0 -21 -56 -2 -63 7 -3 4 -6
-7 -6 -15 -1 -17 -6 -12 -33 8 -39 -1 -32 -14 11 -5 17 -5 31 0 31 5 0 6 12 4
27 -7 36 -14 42 -15 12 l-1 -24 -9 25 c-7 21 -8 20 -6 -13 3 -36 -5 -48 -18
-27 -4 6 -11 8 -16 5 -5 -4 -9 -1 -9 4 0 6 6 11 13 11 16 0 17 62 1 67 -17 6
-26 -27 -13 -43 10 -12 8 -13 -5 -8 -13 5 -16 14 -12 30 4 13 2 24 -3 24 -13
0 -19 -22 -15 -57 3 -27 1 -30 -17 -26 -16 4 -18 8 -7 14 10 7 10 9 -2 9 -13
0 -13 1 0 10 10 6 11 10 3 10 -7 0 -13 9 -13 20 0 11 5 20 10 20 6 0 10 5 10
10 0 6 -12 10 -27 9 -20 0 -23 -2 -12 -7 12 -5 14 -13 8 -27 -6 -17 -8 -17 -8
-2 -1 9 -5 17 -11 17 -5 0 -7 -8 -4 -17 5 -15 4 -16 -5 -3 -6 8 -11 27 -11 42
0 15 -5 30 -11 34 -7 4 -9 0 -5 -14 4 -11 2 -23 -4 -27 -5 -3 -10 -14 -9 -23
0 -14 2 -13 9 3 8 19 9 19 9 -2 1 -20 -4 -23 -40 -23 -29 0 -38 3 -33 13 5 7
1 7 -12 -3 -10 -8 -21 -16 -23 -17 -3 -2 4 -10 15 -18 16 -13 17 -16 4 -24
-11 -8 -17 -5 -22 10 -4 11 -17 23 -29 27 -21 8 -21 9 6 30 16 13 25 28 22 36
-3 8 1 17 9 20 8 3 13 13 13 23 -1 17 -2 17 -6 0 -2 -9 -8 -15 -12 -13 -4 3
-13 -4 -20 -16 -7 -11 -8 -17 -2 -13 6 3 11 1 11 -4 0 -6 -9 -11 -20 -11 -11
0 -20 -6 -20 -12 0 -8 -14 -13 -35 -14 -19 -1 -35 3 -35 7 0 5 6 9 13 9 9 0 8
3 -2 9 -7 5 -10 14 -7 20 5 7 -1 11 -13 11 -23 0 -28 -15 -8 -23 6 -3 2 -6
-10 -6 -16 -1 -23 5 -23 18 0 11 6 21 13 24 22 8 3 15 -25 10 -16 -3 -28 -10
-28 -15 0 -5 5 -6 10 -3 6 4 10 -7 9 -27 -1 -30 -2 -31 -8 -8 -6 21 -13 25
-39 22 -18 -1 -32 3 -32 9 0 6 7 9 15 6 8 -4 17 -2 20 3 6 9 -28 15 -67 11
-21 -3 -24 15 -5 22 6 3 2 6 -10 6 -12 1 -25 -3 -28 -9 -3 -5 0 -10 7 -10 9 0
9 -3 -2 -10 -11 -7 -5 -10 24 -10 30 0 37 -3 32 -15 -4 -10 1 -15 15 -15 11 0
30 -10 42 -21 l22 -21 -22 6 c-15 5 -25 2 -32 -11 -9 -16 -10 -16 -11 5 0 13
4 20 10 17 6 -3 10 -1 10 4 0 19 -40 12 -41 -6 0 -15 -2 -15 -8 2 -5 11 -7 23
-4 28 4 6 -19 11 -39 8 -7 -1 -33 41 -30 47 1 1 2 10 2 20 0 12 -8 17 -28 18
-26 2 -26 1 -5 -8 22 -11 39 -38 24 -38 -5 0 -12 6 -14 13 -3 7 -6 5 -6 -5 -1
-10 -8 -18 -17 -18 -13 0 -15 8 -10 40 5 34 3 40 -12 40 -11 0 -18 -8 -18 -19
0 -11 4 -17 8 -15 4 3 8 1 8 -5 0 -5 -6 -12 -12 -14 -9 -4 -10 -8 -2 -14 14
-11 16 -71 4 -108 l-10 -30 5 33 c5 34 4 35 -55 32 -33 -1 -34 -1 -15 14 18
13 19 15 3 21 -10 4 -15 11 -12 16 3 5 1 9 -5 9 -5 0 -12 -6 -15 -12 -2 -7 -4
3 -3 22 2 27 -2 35 -15 35 -9 0 -20 4 -24 8 -4 4 1 7 12 7 14 0 19 8 21 27 0
16 -2 21 -7 13 -6 -10 -8 -10 -12 1 -3 9 -6 8 -11 -5 -4 -10 -3 -15 3 -11 6 3
10 1 10 -4 0 -6 -6 -11 -14 -11 -8 0 -17 -8 -19 -17 -3 -10 -5 -1 -6 20 -1 28
2 36 12 31 8 -5 8 -3 -2 9 -13 17 -36 14 -26 -4 4 -5 1 -9 -6 -9 -8 0 -10 -13
-6 -39 3 -28 1 -41 -9 -45 -10 -4 -12 2 -7 24 5 27 3 30 -21 30 -15 0 -29 6
-32 14 -3 8 -14 14 -24 13 -14 -1 -16 -5 -9 -24 5 -14 5 -23 -1 -23 -6 0 -10
-6 -10 -14 0 -8 -7 -16 -15 -20 -18 -7 -19 -2 -3 24 7 10 9 23 4 27 -4 4 -13
-1 -19 -12 -16 -30 -19 -78 -5 -87 10 -6 9 -8 -2 -8 -13 0 -13 -1 0 -10 12 -8
11 -10 -7 -10 -17 0 -21 4 -17 18 5 16 5 16 -6 0 -7 -12 -24 -18 -51 -18 -22
0 -38 4 -35 9 4 5 0 12 -6 14 -9 4 -10 6 -1 6 6 1 15 -4 18 -9 3 -6 17 -10 31
-10 33 0 35 39 2 41 -19 1 -20 2 -4 6 10 3 23 0 29 -6 16 -16 30 -13 23 4 -3
8 -1 15 3 15 5 0 7 9 4 21 -4 16 -8 17 -14 7 -7 -10 -9 -9 -9 5 0 14 -4 16
-19 8 -10 -6 -22 -7 -26 -3 -5 4 -5 1 -1 -6 5 -7 14 -11 21 -8 7 2 16 -1 18
-8 3 -8 -3 -12 -16 -10 -12 1 -30 3 -40 3 -16 1 -16 3 3 23 23 25 26 40 6 32
-8 -3 -16 -1 -19 3 -3 5 4 10 15 10 28 3 29 4 15 44 -7 20 -18 34 -25 31 -6
-2 -12 -8 -12 -13 0 -6 5 -7 10 -4 6 3 10 -5 10 -19 0 -19 -5 -24 -23 -22 -18
2 -23 -2 -22 -18 1 -12 8 -21 15 -21 7 0 15 -5 17 -11 3 -8 -8 -10 -34 -7 -21
3 -40 7 -42 9 -2 2 -12 -1 -22 -7 -13 -6 -19 -6 -19 0 0 16 38 33 45 21 15
-25 24 -6 21 42 -2 29 -2 47 1 41 3 -7 9 -13 15 -13 6 0 7 8 4 17 -4 9 -1 20
6 25 10 6 10 8 1 8 -19 0 -50 -34 -45 -50 3 -9 -1 -11 -11 -7 -9 3 -26 -3 -39
-13 l-23 -19 22 -1 c14 0 21 -5 17 -13 -5 -15 -34 -19 -34 -5 0 5 -4 7 -9 3
-6 -3 -13 1 -18 9 -4 7 -17 16 -28 19 -15 4 -14 5 8 6 19 1 27 -4 27 -16 0
-15 2 -14 14 3 8 10 13 21 10 23 -7 7 -49 7 -71 -1 -13 -4 -25 -3 -28 2 -4 6
1 10 11 10 13 0 14 3 5 13 -6 8 -9 17 -6 21 3 3 -1 2 -7 -4 -17 -14 -32 -12
-20 3 16 20 26 61 13 53 -6 -4 -11 -16 -11 -27 0 -11 -5 -17 -10 -14 -6 3 -10
-1 -10 -9 0 -10 -9 -16 -22 -16 -17 0 -19 -3 -9 -9 7 -5 23 -7 35 -5 11 2 15
2 9 -2 -7 -3 -13 -10 -13 -15 0 -6 4 -7 10 -4 5 3 10 2 10 -4 0 -5 13 -12 30
-16 34 -7 48 -24 30 -35 -8 -5 -8 -9 4 -13 8 -3 18 -2 21 4 4 5 11 6 17 3 6
-4 -5 -13 -23 -21 -27 -11 -31 -16 -19 -24 13 -9 12 -10 -2 -5 -22 7 -35 -13
-17 -25 8 -5 10 -9 4 -9 -30 0 -35 17 -11 43 19 20 21 27 9 31 -8 3 -11 1 -8
-4 3 -6 -1 -13 -9 -16 -8 -3 -18 -13 -21 -23 -3 -9 -14 -17 -25 -18 -16 -1
-20 3 -15 16 6 20 -18 46 -35 36 -5 -3 -10 -2 -10 4 0 20 18 20 40 1 26 -22
45 -25 55 -9 4 6 1 10 -6 8 -28 -3 -38 1 -44 21 -5 16 -10 18 -31 8 -26 -12
-35 -55 -10 -45 20 8 37 -15 26 -33 -13 -21 -4 -28 34 -24 25 2 36 -1 38 -12
2 -12 7 -11 26 6 12 11 22 16 22 10 0 -6 10 -8 25 -4 18 4 25 2 25 -7 0 -26
-12 -59 -22 -59 -5 0 -6 4 -3 10 3 5 -3 19 -14 31 -17 19 -19 19 -18 3 2 -24
-22 -25 -52 -2 -13 10 -28 15 -34 11 -6 -4 -3 -9 9 -14 17 -7 17 -8 2 -8 -10
-1 -18 -4 -18 -8 0 -5 24 -9 52 -11 62 -3 67 -7 45 -29 -9 -10 -17 -12 -17 -6
0 6 6 14 12 16 7 3 -15 4 -50 3 -49 -2 -62 1 -58 11 7 18 -15 64 -27 56 -6 -3
-7 -1 -3 5 4 7 1 12 -9 12 -12 0 -14 -4 -5 -19 14 -27 13 -31 -7 -30 -11 0
-13 3 -6 6 10 3 10 10 1 26 -11 21 -11 21 -19 2 -6 -17 -8 -17 -8 -3 -1 26 46
49 59 28 5 -8 9 -7 13 4 6 15 -8 20 -51 19 -9 -1 -10 3 -2 12 8 9 6 14 -6 19
-21 8 -26 8 -20 -2 2 -4 -4 -8 -15 -8 -29 0 -16 21 14 21 14 1 34 9 45 18 17
15 71 21 70 7 -2 -18 3 -32 9 -26 15 15 11 42 -7 54 -12 7 -20 8 -20 2 0 -6
-13 -8 -31 -5 -24 4 -30 3 -26 -8 9 -24 -13 -38 -37 -25 -12 6 -23 11 -26 10
-3 -1 -5 6 -5 16 0 9 -4 23 -8 30 -5 8 -3 12 7 12 9 0 16 -6 16 -12 0 -9 4 -8
10 2 8 13 10 13 10 -2 0 -9 -5 -18 -12 -20 -16 -6 0 -28 20 -28 13 0 14 2 4 8
-14 9 -2 54 17 67 14 8 14 25 1 25 -5 0 -10 -6 -10 -14 0 -11 -11 -13 -44 -10
l-45 4 9 -29 c7 -27 6 -29 -22 -35 -16 -3 -27 -10 -23 -15 3 -5 0 -13 -6 -17
-8 -5 -9 -3 -4 6 5 9 4 11 -4 6 -7 -5 -10 -2 -9 6 2 7 -3 12 -9 11 -16 -4 -17
9 -1 25 9 9 9 12 0 12 -7 0 -15 -7 -18 -15 -4 -9 -12 -14 -18 -13 -6 2 -13 -1
-15 -7 -1 -5 -7 -16 -13 -22 -6 -7 -9 -13 -7 -14 31 -6 38 -6 34 1 -3 4 2 11
11 14 24 9 31 7 14 -5 -13 -9 -12 -10 2 -5 10 3 20 2 22 -3 3 -4 21 -7 41 -6
19 2 35 -1 35 -5 0 -14 -27 -19 -64 -10 -34 7 -35 6 -34 -16 2 -14 7 -23 14
-20 6 2 11 -2 11 -10 0 -9 -6 -13 -15 -9 -10 4 -13 0 -9 -15 3 -11 1 -20 -4
-20 -5 0 -9 20 -9 45 0 43 -1 45 -25 41 -26 -5 -30 4 -26 52 1 15 -2 21 -8 17
-6 -3 -11 -1 -11 4 0 6 16 11 36 11 19 0 33 4 30 8 -2 4 5 9 16 9 12 1 25 6
31 12 6 6 3 9 -9 7 -11 -2 -22 2 -26 8 -5 8 -8 7 -8 -2 0 -7 -4 -10 -10 -7 -5
3 -10 1 -10 -4 0 -6 -5 -11 -11 -11 -5 0 -7 4 -4 10 3 6 -1 7 -9 4 -9 -3 -13
-10 -10 -15 3 -5 -2 -9 -10 -9 -9 0 -14 8 -13 20 1 14 8 20 25 20 13 0 20 4
17 10 -3 6 -1 10 5 10 7 0 5 7 -4 16 -9 8 -14 19 -12 23 3 4 -2 8 -10 8 -10 0
-11 -4 -4 -11 5 -5 10 -19 10 -29 0 -17 -5 -19 -45 -15 -25 3 -45 1 -45 -4 0
-5 4 -7 8 -4 16 10 35 -11 25 -29 -6 -9 -8 -29 -5 -43 4 -21 6 -23 11 -9 6 15
7 15 19 -3 11 -19 9 -20 -36 -19 -40 1 -48 5 -48 20 0 11 4 19 8 19 4 0 8 -4
8 -9 0 -5 6 -11 14 -14 10 -4 13 3 12 24 0 16 -6 29 -13 29 -6 0 -14 6 -17 13
-3 6 -4 1 -1 -13 3 -14 2 -19 -1 -12 -5 10 -10 8 -21 -7 -8 -12 -24 -21 -36
-21 -18 0 -19 2 -7 10 13 9 13 11 1 19 -8 5 -21 6 -30 3 -10 -4 -11 -7 -3 -10
19 -6 14 -18 -8 -19 -12 -1 -18 3 -14 9 4 6 0 14 -7 19 -10 6 -9 8 6 9 55 1
64 4 53 17 -11 14 -7 16 34 13 31 -2 43 13 28 37 -10 16 -10 16 -5 -3 5 -18 1
-21 -22 -19 -42 3 -45 4 -38 15 3 6 -1 10 -11 10 -13 0 -14 -3 -5 -14 8 -10 9
-16 1 -21 -5 -3 -10 -1 -10 5 0 6 -5 8 -11 4 -8 -4 -6 -10 6 -17 24 -13 -1
-28 -30 -17 -12 5 -28 4 -36 -1 -11 -7 -11 -9 4 -9 9 0 17 -4 17 -9 0 -5 -9
-7 -20 -4 -14 4 -20 14 -21 37 -1 25 -2 27 -7 10 -6 -16 -12 -19 -27 -13 -18
7 -18 8 -2 8 10 1 16 5 12 10 -6 10 -64 6 -74 -5 -3 -4 4 -4 16 -1 16 3 23 1
23 -9 0 -8 10 -19 22 -25 21 -9 21 -9 -4 -4 -21 4 -26 2 -22 -9 3 -7 -2 -16
-12 -20 -14 -5 -15 -4 -4 9 10 12 10 15 -1 15 -11 0 -11 2 1 10 8 5 11 12 8
15 -23 23 -27 -25 -28 -325 l0 -320 2300 0 2300 0 0 2300 0 2300 -2300 0
-2300 0 0 -133z m2145 -153 c14 -15 16 -37 13 -160 -2 -100 -7 -147 -16 -156
-19 -19 -253 -18 -275 1 -14 11 -17 35 -17 149 l0 136 -30 -29 c-16 -16 -30
-24 -30 -19 0 11 75 75 97 84 7 3 64 6 127 8 96 2 117 0 131 -14z m465 1 c10
-12 12 -51 7 -157 -4 -117 -8 -144 -22 -154 -25 -19 -136 -28 -213 -18 l-67 9
-3 143 -3 142 -44 -24 c-24 -14 -42 -20 -39 -13 2 7 27 25 54 40 28 16 50 32
50 38 0 5 57 9 134 9 108 0 136 -3 146 -15z m-1220 -54 c0 -5 -7 -12 -16 -15
-14 -5 -15 -4 -4 9 14 17 20 19 20 6z m1280 -38 c0 -21 -5 -45 -10 -53 -7 -11
-10 0 -10 38 0 28 5 52 10 52 6 0 10 -17 10 -37z m-1302 -8 c4 -5 2 -5 -5 -1
-9 5 -12 -37 -10 -181 2 -180 3 -188 23 -197 11 -5 25 -19 30 -30 8 -20 18
-21 138 -24 75 -1 135 -7 143 -14 10 -8 13 -47 13 -153 0 -121 -3 -145 -17
-156 -11 -10 -48 -14 -129 -14 -146 0 -144 -1 -152 140 -3 71 -8 102 -14 91
-5 -9 -16 -16 -23 -16 -23 0 -22 -302 1 -324 8 -9 22 -16 30 -16 8 0 14 -3 14
-7 0 -5 61 -6 136 -4 75 1 140 -1 144 -5 5 -5 10 -71 12 -146 3 -174 7 -170
-135 -176 -87 -4 -108 -2 -130 13 l-27 17 0 144 c0 82 -4 144 -9 144 -15 0
-41 -30 -42 -48 0 -9 0 -89 1 -177 1 -151 7 -185 32 -185 5 0 16 -7 24 -15 9
-8 24 -15 35 -15 10 0 19 -4 19 -8 0 -4 51 -7 113 -6 61 1 120 -3 131 -8 12
-7 16 -7 12 0 -4 7 5 10 24 10 16 -1 30 -5 30 -10 0 -4 7 -8 15 -8 8 0 15 -4
15 -10 0 -5 5 -10 11 -10 5 0 7 5 4 10 -3 6 -2 10 4 10 6 0 8 8 5 18 -5 15 -4
15 5 1 15 -23 2 -62 -18 -54 -12 5 -13 4 -4 -6 7 -7 9 -24 6 -42 -4 -21 -3
-28 5 -23 7 4 10 0 7 -12 -5 -27 10 -49 18 -27 5 10 3 14 -5 9 -7 -4 -8 -3 -4
4 4 7 11 12 15 12 13 0 21 -39 10 -46 -5 -3 -7 -10 -3 -15 3 -5 10 -7 15 -4 5
4 9 1 9 -4 0 -16 -8 -14 -45 15 -19 14 -32 31 -29 39 5 13 -33 41 -43 32 -2
-3 4 -8 15 -11 14 -5 18 -13 14 -33 -3 -18 -1 -24 7 -19 7 5 11 -2 11 -20 0
-23 2 -25 16 -13 14 11 15 10 12 -11 -4 -35 -19 -31 -44 13 l-21 38 -1 -33
c-1 -25 2 -29 10 -18 8 12 9 11 4 -4 -4 -11 -1 -23 6 -27 9 -6 6 -8 -7 -7 -13
1 -20 10 -21 26 -2 28 -9 36 -23 28 -7 -4 -7 -15 -1 -31 8 -20 4 -29 -21 -55
-17 -16 -35 -28 -40 -24 -5 3 -16 -2 -25 -10 -8 -9 -11 -16 -5 -16 5 0 13 5
17 11 4 8 9 8 17 0 8 -8 8 -14 -1 -23 -17 -17 -40 -18 -46 -3 -3 8 -14 19 -25
25 -17 9 -20 8 -15 -5 3 -8 10 -13 14 -10 15 9 21 -14 10 -34 -7 -14 -7 -22 0
-26 6 -4 10 -3 9 2 -5 31 23 41 40 14 6 -10 12 -9 24 3 20 20 31 20 23 1 -3
-9 0 -15 9 -15 9 0 12 6 9 15 -4 8 -1 15 6 15 6 0 10 -8 8 -17 -3 -14 -13 -18
-38 -16 l-35 1 28 -11 c26 -11 37 -27 17 -27 -5 0 -10 -5 -10 -10 0 -6 5 -9
12 -8 6 2 14 -5 16 -14 2 -10 -2 -18 -8 -18 -6 0 -8 6 -5 13 4 6 0 3 -9 -7 -8
-10 -17 -24 -19 -30 -2 -6 -8 -7 -13 -3 -5 4 -2 12 6 17 9 6 10 10 3 10 -6 0
-15 -5 -18 -10 -4 -6 -11 -7 -17 -4 -7 5 -8 2 -2 -7 14 -23 13 -38 -2 -32 -8
3 -14 -1 -14 -11 0 -9 -8 -16 -17 -15 -11 0 -13 3 -5 6 6 2 12 9 12 15 0 6
-10 4 -23 -5 -28 -18 -57 -2 -57 31 0 11 -6 23 -12 26 -9 3 -8 9 5 20 18 14
18 15 -2 26 -14 7 -21 7 -21 0 0 -5 5 -10 10 -10 6 0 3 -11 -6 -25 -15 -23
-15 -25 0 -25 10 0 16 -9 17 -22 1 -23 1 -28 -9 -62 -4 -14 -2 -17 8 -11 10 6
12 3 8 -12 -3 -11 -2 -27 3 -35 6 -11 1 -14 -19 -13 -15 0 -26 6 -25 13 2 6
-4 9 -12 6 -11 -5 -12 -11 -5 -24 16 -30 12 -31 -14 -5 -14 14 -26 34 -28 46
-3 21 -4 22 -18 4 -9 -11 -10 -16 -2 -11 7 4 12 1 12 -9 0 -10 -5 -14 -12 -9
-7 3 1 -6 17 -20 l30 -27 -35 14 c-19 7 -42 13 -50 12 -8 0 -18 6 -22 15 -6
11 -7 10 -5 -5 2 -11 9 -19 15 -17 7 1 12 -4 12 -12 0 -8 4 -17 9 -21 6 -3 8
4 6 15 -2 11 0 18 6 15 15 -10 10 -75 -7 -92 -13 -14 -17 -14 -25 -2 -7 11
-10 10 -15 -8 -4 -13 -11 -20 -20 -16 -8 3 -14 -1 -14 -11 0 -9 -5 -16 -11
-16 -5 0 -7 -5 -3 -11 4 -8 12 -3 20 12 8 14 13 18 14 10 0 -11 4 -10 13 4 8
10 19 15 26 11 6 -4 14 0 17 8 3 9 10 16 15 16 4 0 6 -7 3 -15 -5 -11 -2 -13
10 -9 9 3 16 12 16 20 0 8 7 14 15 14 8 0 15 -5 15 -11 0 -5 -4 -7 -10 -4 -5
3 -10 -1 -10 -9 0 -12 11 -14 57 -10 36 2 59 0 64 -7 10 -17 29 -1 23 19 -5
13 -4 14 4 3 6 -8 31 -15 61 -16 49 -2 87 -15 43 -15 -12 0 -22 -5 -22 -11 0
-8 -4 -8 -15 1 -8 6 -22 10 -32 7 -16 -4 -16 -5 2 -6 11 -1 29 -8 40 -17 18
-13 20 -28 23 -152 1 -78 -2 -143 -7 -152 -8 -12 -41 -16 -151 -20 -110 -4
-143 -8 -150 -20 -8 -13 -11 -13 -26 2 -13 12 -17 38 -19 105 -1 48 -3 122 -4
163 -1 44 -5 70 -10 62 -6 -10 -10 -10 -21 2 -7 9 -16 13 -21 10 -5 -3 -9 2
-9 10 0 9 6 15 12 14 7 -2 14 7 16 19 2 13 8 20 16 17 8 -3 16 2 19 10 4 9 18
16 32 16 16 0 25 6 25 15 0 16 -16 21 -22 6 -1 -5 -9 -3 -16 5 -7 8 -8 14 -2
14 5 0 10 5 10 10 0 6 -5 9 -11 8 -6 -2 -13 8 -15 22 -3 13 -10 28 -17 32 -9
6 -8 8 3 8 11 0 11 3 2 12 -29 29 -8 56 26 34 8 -5 19 -3 25 4 7 6 8 10 2 9
-15 -4 -85 24 -85 33 0 5 9 4 20 -2 16 -8 18 -8 14 4 -3 8 -12 17 -20 20 -8 3
-14 18 -14 33 0 22 -2 25 -11 13 -8 -12 -9 -11 -4 6 4 15 -3 29 -22 48 -26 27
-26 27 -5 33 12 3 20 9 17 13 -3 5 4 15 16 23 11 9 16 16 9 19 -8 2 -8 11 0
32 8 21 8 31 0 36 -6 4 -11 29 -11 56 0 27 0 62 0 79 1 16 -5 33 -12 38 -9 6
-9 10 0 13 16 7 -26 84 -52 95 -18 7 -17 8 7 8 19 1 32 10 47 37 12 19 17 33
12 30 -4 -3 -8 12 -7 33 0 22 5 37 10 34 5 -4 6 0 0 8 -5 8 -10 41 -11 74 -1
33 -3 62 -4 65 -1 3 -1 12 -1 20 2 27 -32 85 -56 95 -25 11 -29 25 -7 25 8 0
25 5 39 11 31 14 40 59 38 186 -1 107 -30 186 -69 191 -15 2 -23 10 -23 22 0
20 -38 55 -71 65 -36 12 -19 21 43 21 57 1 64 4 88 32 23 28 25 39 27 131 1
72 -2 101 -10 101 -7 0 -6 4 3 10 8 5 10 10 4 10 -6 0 -14 16 -17 36 -6 38
-41 84 -63 84 -12 0 -26 35 -16 44 7 8 152 -1 160 -9z m403 -12 c-8 -15 -10
-15 -11 -2 0 17 10 32 18 25 2 -3 -1 -13 -7 -23z m902 -405 c9 -6 9 -8 0 -8
-14 0 -18 -66 -5 -72 4 -1 2 -19 -5 -38 -10 -31 -12 -21 -11 85 1 66 3 102 5
80 3 -22 10 -43 16 -47z m593 42 c0 -11 -4 -20 -8 -20 -10 0 -11 24 -1 33 9 9
9 10 9 -13z m208 6 c-4 -9 6 -18 28 -26 25 -10 39 -26 61 -69 15 -31 28 -62
27 -68 0 -7 4 -13 9 -13 5 0 9 -6 8 -12 0 -7 1 -39 1 -70 2 -47 5 -56 17 -52
8 4 15 3 15 -1 0 -3 -7 -13 -15 -21 -8 -9 -15 -21 -15 -27 0 -7 5 -4 11 6 5 9
20 16 32 16 17 -1 18 -2 5 -6 -27 -7 -22 -18 8 -20 15 0 30 -7 35 -15 5 -7 13
-13 18 -13 5 0 22 -18 37 -40 21 -32 22 -36 5 -21 -12 11 -24 16 -29 11 -4 -4
-1 -10 7 -13 11 -4 11 -6 0 -13 -10 -6 -7 -9 12 -9 36 0 39 -7 22 -41 -17 -34
-6 -56 22 -45 12 4 14 12 9 28 -13 42 -12 87 3 81 7 -3 13 -11 13 -18 0 -14
11 -19 68 -30 17 -4 32 -11 32 -16 0 -12 3 -12 -58 10 -28 11 -54 15 -57 11
-6 -9 25 -30 44 -30 5 0 22 -5 38 -11 26 -10 27 -12 8 -19 -14 -6 -15 -9 -4
-9 8 -1 20 4 27 11 9 9 12 9 12 0 0 -8 10 -11 28 -7 15 3 21 2 14 -1 -6 -3 -9
-10 -6 -16 4 -7 -5 -8 -27 -4 -25 4 -29 4 -14 -3 l20 -10 -20 -1 c-19 -1 -19
-2 2 -10 12 -5 25 -21 29 -35 8 -31 44 -35 44 -4 0 19 1 19 22 5 12 -9 35 -16
51 -16 25 0 28 2 17 15 -16 19 -1 19 24 0 20 -15 20 -15 0 -16 -18 0 -18 -1 1
-10 16 -7 14 -8 -10 -3 -24 4 -28 3 -17 -7 9 -10 19 -11 42 -2 26 10 29 9 33
-11 3 -17 5 -15 6 7 0 15 5 27 11 27 6 0 8 -18 5 -42 -3 -33 -2 -38 5 -20 5
12 14 22 20 22 14 0 12 -11 -5 -34 -22 -29 -18 -43 4 -17 l19 21 20 -67 c33
-110 43 -171 49 -308 5 -108 3 -133 -9 -146 -10 -9 -13 -26 -10 -47 3 -25 1
-32 -12 -32 -12 0 -16 -9 -16 -35 0 -22 -8 -43 -20 -55 -11 -11 -20 -26 -20
-34 0 -8 -12 -17 -27 -21 -16 -4 -22 -10 -15 -12 14 -5 17 -63 3 -63 -5 0 -11
6 -14 13 -3 9 -7 9 -20 -2 -13 -10 -20 -11 -31 -2 -7 6 -20 9 -29 6 -9 -4 -23
4 -35 19 -11 14 -27 26 -36 26 -9 0 -29 9 -44 19 -15 11 -48 22 -73 26 -26 3
-55 12 -65 20 -11 8 -34 15 -52 15 -18 0 -40 6 -47 14 -10 9 -33 12 -88 8 -47
-3 -82 0 -96 8 -20 10 -23 9 -28 -9 -6 -23 -32 -28 -52 -8 -10 9 -15 9 -18 0
-3 -8 -11 -5 -24 8 -10 10 -28 19 -39 19 -11 0 -20 4 -20 9 0 14 -34 8 -46 -8
-8 -11 -12 5 -17 65 -4 56 -19 120 -52 219 -26 77 -50 145 -53 150 -4 6 -7 15
-9 20 -1 6 -11 35 -23 65 -70 183 -71 184 -53 198 9 6 25 12 34 12 10 0 20 4
24 9 3 5 20 13 38 16 17 4 46 14 62 23 28 14 29 14 16 -1 -16 -20 -11 -21 24
-5 19 9 22 14 13 21 -9 6 -6 6 7 2 11 -4 31 -7 45 -7 24 1 24 0 4 -8 -28 -11
-22 -64 6 -55 19 6 44 -18 55 -55 l8 -24 24 29 24 30 19 -24 c11 -13 20 -18
20 -12 0 6 14 11 30 11 33 0 90 43 76 57 -4 4 -13 0 -20 -9 -11 -15 -13 -14
-13 12 0 25 3 28 15 17 13 -10 14 -9 3 11 -6 12 -8 22 -3 22 4 0 16 -16 25
-35 15 -31 20 -34 47 -29 20 4 30 3 30 -5 0 -8 -8 -10 -19 -6 -11 3 -22 1 -26
-5 -3 -5 -1 -10 5 -10 7 0 10 -7 6 -15 -3 -8 2 -19 12 -24 14 -7 21 -5 30 9
10 16 9 18 -3 14 -21 -8 -19 2 5 26 16 16 20 17 20 5 0 -8 5 -15 11 -15 6 0 9
6 6 14 -4 10 4 17 24 21 17 4 33 4 36 1 4 -3 -5 -6 -18 -7 -22 0 -23 -1 -4 -9
11 -5 14 -9 8 -9 -7 -1 -13 -8 -13 -17 0 -13 2 -14 14 -1 25 25 23 50 -4 57
-17 4 -21 8 -12 14 6 4 12 12 12 19 0 8 -3 8 -11 0 -13 -13 -28 -3 -47 34 -9
15 -9 24 -1 28 16 10 -28 38 -51 32 -10 -2 -24 0 -31 5 -11 8 -11 9 1 5 9 -3
23 1 32 7 13 10 5 11 -45 8 -42 -2 -57 0 -48 6 8 6 21 8 29 5 12 -5 12 -2 3
16 -7 12 -19 25 -27 28 -8 3 -14 15 -14 27 0 12 -7 31 -15 42 -15 18 -15 18
-9 -8 4 -18 2 -28 -6 -28 -6 0 -8 5 -5 10 3 6 2 10 -4 10 -7 0 -7 8 -1 25 14
36 3 31 -15 -7 -8 -18 -13 -24 -12 -13 2 11 -4 25 -13 32 -12 9 -17 6 -27 -15
-11 -22 -13 -23 -9 -5 3 15 -4 27 -23 40 -14 9 -29 17 -33 15 -3 -1 -2 13 3
31 11 36 2 127 -12 127 -5 0 -9 7 -9 14 0 8 -12 28 -26 43 l-26 28 27 3 c15 2
34 -3 43 -11 26 -22 42 -11 28 19 -8 19 -16 23 -34 19 -16 -4 -21 -2 -17 6 4
6 18 9 31 6 14 -2 27 0 30 4 8 14 14 10 8 -5z m-91 -3 c-7 -2 -19 -2 -25 0 -7
3 -2 5 12 5 14 0 19 -2 13 -5z m-1584 -123 c-24 -31 -39 -38 -39 -18 0 6 -10
23 -22 36 l-23 24 43 -4 c33 -3 42 0 42 12 1 12 3 12 11 -2 7 -13 4 -25 -12
-48z m352 39 c7 -14 10 -67 7 -150 -4 -165 -2 -162 -140 -162 -57 0 -115 5
-130 11 l-27 11 -3 141 c-2 113 0 144 12 155 11 12 43 15 142 15 119 0 128 -1
139 -21z m443 15 c14 -5 16 -27 16 -138 0 -156 -3 -171 -40 -186 -36 -15 -231
-10 -251 7 -11 9 -13 42 -11 158 3 140 4 146 25 155 25 10 237 13 261 4z m43
-61 c-3 -10 -5 -2 -5 17 0 19 2 27 5 18 2 -10 2 -26 0 -35z m-413 7 c-6 -6
-10 -3 -10 10 0 13 4 16 10 10 7 -7 7 -13 0 -20z m66 20 c-18 -12 -30 -13 -30
-2 0 4 10 9 22 9 18 2 20 0 8 -7z m1670 -60 c6 -11 8 -20 6 -20 -3 0 -10 9
-16 20 -6 11 -8 20 -6 20 3 0 10 -9 16 -20z m-317 -5 c-3 -9 -8 -14 -10 -11
-3 3 -2 9 2 15 9 16 15 13 8 -4z m-5 -100 c0 -13 -4 -22 -9 -19 -5 3 -8 16 -7
29 3 31 16 23 16 -10z m25 0 c4 -8 3 -16 -1 -19 -4 -3 -9 4 -9 15 -2 23 3 25
10 4z m57 -45 c6 -11 8 -20 6 -20 -3 0 -10 9 -16 20 -6 11 -8 20 -6 20 3 0 10
-9 16 -20z m339 -20 c11 -24 11 -24 -3 -6 -9 11 -16 24 -16 30 0 12 5 7 19
-24z m-368 -13 c-10 -9 -11 -8 -5 6 3 10 9 15 12 12 3 -3 0 -11 -7 -18z m-231
-2 c11 -13 10 -14 -4 -9 -9 3 -16 10 -16 15 0 13 6 11 20 -6z m288 -20 c-3 -3
-9 2 -12 12 -6 14 -5 15 5 6 7 -7 10 -15 7 -18z m-28 0 c0 -8 -2 -15 -4 -15
-2 0 -6 7 -10 15 -3 8 -1 15 4 15 6 0 10 -7 10 -15z m-493 -41 c-3 -3 -12 -4
-19 -1 -8 3 -5 6 6 6 11 1 17 -2 13 -5z m43 -22 c39 -47 40 -48 30 -80 -6 -22
-5 -32 2 -32 6 0 8 -3 5 -6 -4 -4 -12 -3 -19 3 -15 11 -60 15 -54 4 3 -4 -4
-12 -14 -19 -12 -7 -21 -8 -25 -2 -8 13 -42 13 -51 -1 -4 -8 1 -9 17 -4 21 7
22 6 10 -9 -15 -18 -1 -22 17 -4 7 7 12 9 12 4 0 -4 10 0 22 8 12 9 32 16 43
15 14 0 16 -2 5 -6 -18 -7 -57 -23 -133 -57 -32 -14 -55 -21 -52 -16 4 6 1 10
-6 10 -7 0 -9 3 -6 7 4 3 1 13 -5 21 -13 15 -19 37 -19 65 0 9 -4 17 -9 17 -4
0 -10 6 -13 14 -4 11 2 13 25 10 l31 -3 -21 20 c-27 24 -27 25 -3 25 11 0 17
-4 15 -8 -3 -4 -1 -8 5 -8 5 0 13 5 17 11 4 8 9 7 15 -2 5 -9 2 -16 -9 -21
-16 -6 -15 -7 1 -7 10 -1 15 -5 12 -11 -3 -5 -1 -10 5 -10 7 0 10 7 7 15 -5
11 0 13 21 9 19 -4 37 2 61 20 19 14 31 26 27 26 -4 0 -4 5 -1 10 9 14 19 12
35 -8z m530 14 c0 -3 -4 -8 -10 -11 -5 -3 -10 -1 -10 4 0 6 5 11 10 11 6 0 10
-2 10 -4z m-580 -15 c0 -5 -7 -11 -14 -14 -10 -4 -13 -1 -9 9 6 15 23 19 23 5z
m291 -18 c13 -16 12 -17 -3 -4 -17 13 -22 21 -14 21 2 0 10 -8 17 -17z m-351
-9 c0 -8 -5 -12 -10 -9 -6 4 -8 11 -5 16 9 14 15 11 15 -7z m953 -1 c-3 -7 -6
-13 -8 -13 -2 0 -5 6 -8 13 -3 8 1 14 8 14 7 0 11 -6 8 -14z m-633 3 c0 -3 -4
-8 -10 -11 -5 -3 -10 -1 -10 4 0 6 5 11 10 11 6 0 10 -2 10 -4z m5 -26 c-3 -5
-12 -10 -18 -10 -7 0 -6 4 3 10 19 12 23 12 15 0z m158 3 c-7 -2 -19 -2 -25 0
-7 3 -2 5 12 5 14 0 19 -2 13 -5z m-983 -63 c4 -22 3 -43 -1 -46 -5 -3 -7 -9
-5 -13 3 -4 1 -13 -5 -21 -6 -10 -9 10 -9 59 0 79 8 88 20 21z m750 40 c8 -5
11 -10 5 -10 -5 0 -17 5 -25 10 -8 5 -10 10 -5 10 6 0 17 -5 25 -10z m-73 -25
c0 -17 -13 -20 -21 -6 -4 5 0 12 6 14 7 3 13 6 14 6 0 1 1 -6 1 -14z m271 -16
c-3 -8 -7 -3 -11 10 -4 17 -3 21 5 13 5 -5 8 -16 6 -23z m-3568 11 c0 -5 -7
-10 -15 -10 -8 0 -15 5 -15 10 0 6 7 10 15 10 8 0 15 -4 15 -10z m417 3 c-4
-3 -3 -11 2 -17 4 -6 11 -73 15 -148 6 -131 5 -139 -15 -159 -19 -19 -30 -20
-140 -17 l-119 3 0 -31 c0 -16 5 -35 12 -42 9 -9 9 -12 1 -12 -30 0 -43 44
-44 150 0 100 -9 179 -24 226 -9 29 17 35 175 43 69 4 129 8 134 9 5 1 6 -1 3
-5z m2133 -14 c16 -30 9 -274 -8 -291 -9 -9 -49 -13 -138 -13 -162 0 -156 -7
-152 173 l3 133 -30 -3 c-17 -2 -29 -8 -28 -15 2 -7 -4 -10 -12 -7 -12 5 -12
8 -1 19 16 16 64 21 233 23 115 2 123 1 133 -19z m1092 -19 c5 0 6 -5 2 -11
-3 -6 0 -15 7 -20 10 -6 11 -11 3 -19 -16 -16 -36 13 -40 58 -3 33 -2 35 8 15
6 -13 15 -23 20 -23z m310 27 c-12 -5 -26 -5 -36 0 -12 7 -7 9 20 9 30 0 33
-2 16 -9z m-2868 -3 c14 -5 16 -29 16 -155 l0 -149 -26 -10 c-14 -6 -121 -10
-237 -10 -176 0 -216 3 -235 16 -21 14 -22 22 -22 159 0 105 3 145 13 148 18
8 472 8 491 1z m1014 -6 c18 -18 16 -268 -2 -294 -13 -17 -27 -19 -134 -19
-86 0 -124 4 -135 14 -14 11 -17 35 -17 146 0 74 3 140 6 149 5 13 27 16 138
16 89 0 136 -4 144 -12z m1657 2 c-3 -5 -10 -10 -16 -10 -5 0 -9 5 -9 10 0 6
7 10 16 10 8 0 12 -4 9 -10z m235 0 c-8 -5 -19 -10 -25 -10 -5 0 -3 5 5 10 8
5 20 10 25 10 6 0 3 -5 -5 -10z m-653 -16 c-3 -3 -12 -4 -19 -1 -8 3 -5 6 6 6
11 1 17 -2 13 -5z m376 -24 c10 -19 12 -32 6 -36 -6 -3 -13 -3 -16 0 -4 3 -1
6 6 6 7 0 9 5 6 10 -4 6 -11 8 -16 5 -5 -3 -6 1 -2 10 3 10 0 21 -8 26 -9 5
-10 9 -2 9 6 0 18 -13 26 -30z m347 10 l25 -20 -47 16 c-27 9 -48 18 -48 20 0
12 48 1 70 -16z m72 1 c8 11 9 10 4 -3 -3 -10 -1 -18 4 -18 14 0 12 -37 -2
-46 -7 -5 -9 -1 -6 12 3 11 -1 25 -9 32 -7 7 -12 20 -12 30 1 14 2 14 6 -2 4
-15 7 -16 15 -5z m-3572 -5 c0 -8 -4 -18 -10 -21 -5 -3 -10 3 -10 14 0 12 5
21 10 21 6 0 10 -6 10 -14z m3418 5 c11 -7 10 -9 -3 -14 -9 -4 -14 -3 -10 2 3
5 -1 12 -7 14 -7 3 -8 6 -3 6 6 0 16 -3 23 -8z m88 -36 c32 -14 55 -28 52 -31
-3 -3 -23 4 -44 15 -21 12 -44 21 -51 21 -6 0 -15 5 -18 10 -9 15 -2 13 61
-15z m-1226 5 c0 -5 -2 -10 -4 -10 -3 0 -8 5 -11 10 -3 6 -1 10 4 10 6 0 11
-4 11 -10z m1087 4 c-3 -3 -12 -4 -19 -1 -8 3 -5 6 6 6 11 1 17 -2 13 -5z
m-1057 -129 c0 -14 -2 -25 -4 -25 -2 0 -6 11 -8 25 -3 14 -1 25 3 25 5 0 9
-11 9 -25z m179 -20 c7 -19 17 -35 22 -35 6 0 7 -9 4 -20 -4 -11 -2 -20 4 -20
6 0 11 -11 11 -24 0 -13 4 -26 8 -28 5 -1 20 -32 34 -68 20 -50 24 -68 15 -77
-23 -23 -128 -71 -131 -59 -2 6 -11 35 -21 64 -14 42 -15 59 -6 78 6 13 15 24
21 24 5 0 10 7 10 15 0 19 -9 19 -34 0 -17 -13 -20 -12 -31 8 -7 12 -11 37 -9
56 2 24 -1 30 -7 20 -5 -8 -9 -9 -9 -2 0 6 -3 18 -6 27 -6 17 68 76 95 76 10
0 22 -14 30 -35z m-151 -110 c-3 -3 -9 2 -12 12 -6 14 -5 15 5 6 7 -7 10 -15
7 -18z m25 -28 c6 4 8 0 4 -10 -4 -10 -2 -16 4 -14 18 4 41 -73 28 -90 -9 -10
-9 -12 2 -8 17 6 45 -58 33 -76 -4 -7 -3 -9 3 -6 16 10 24 -18 10 -33 -9 -10
-9 -11 1 -6 8 5 17 -4 27 -28 16 -38 31 -49 22 -16 -5 20 18 48 30 36 4 -4 1
-11 -7 -16 -13 -8 -12 -10 2 -10 10 0 22 -14 29 -35 7 -19 17 -35 21 -35 4 0
8 -5 8 -11 0 -5 -4 -8 -8 -5 -4 2 -9 -5 -9 -17 -2 -18 0 -19 8 -7 9 12 9 11 4
-5 -4 -11 -8 -26 -8 -32 0 -9 -4 -9 -12 -3 -8 7 -10 2 -7 -20 3 -23 1 -28 -14
-26 -10 2 -21 14 -25 27 -3 14 -11 33 -17 44 -26 50 -52 127 -46 138 4 7 3 8
-1 4 -11 -9 -37 72 -28 86 3 6 1 7 -4 4 -14 -8 -47 78 -40 104 3 10 1 17 -3
14 -4 -3 -13 9 -19 27 -11 30 -14 55 -4 30 2 -6 10 -9 16 -5z m-316 -154 c-2
-27 -3 -5 -3 47 0 52 1 74 3 48 2 -27 2 -69 0 -95z m288 69 c-5 -5 -25 43 -25
61 1 7 7 -3 16 -22 8 -19 12 -36 9 -39z m-2832 21 c-13 -2 -35 -2 -50 0 -16 2
-5 4 22 4 28 0 40 -2 28 -4z m175 -20 c13 -12 18 -24 14 -35 -6 -15 -10 -14
-35 8 -16 13 -25 29 -22 34 9 14 20 12 43 -7z m412 7 c12 -8 9 -10 -13 -10
-16 0 -26 4 -22 10 8 12 16 12 35 0z m448 -32 c8 -8 12 -56 12 -150 0 -132 -1
-138 -22 -149 -26 -14 -753 -20 -800 -6 l-28 7 0 149 c0 110 3 151 13 154 6 3
192 6 412 6 300 1 404 -2 413 -11z m1489 -120 c-2 -24 -4 -5 -4 42 0 47 2 66
4 43 2 -24 2 -62 0 -85z m-761 52 c-1 -52 -4 -58 -23 -39 -8 8 -6 22 6 50 9
21 17 39 17 39 1 0 1 -22 0 -50z m21 18 c-3 -7 -5 -2 -5 12 0 14 2 19 5 13 2
-7 2 -19 0 -25z m78 22 c-11 -5 -27 -9 -35 -9 -13 -1 -13 0 0 9 8 5 24 9 35 9
l20 0 -20 -9z m-1678 -42 c-3 -8 -6 -5 -6 6 -1 11 2 17 5 13 3 -3 4 -12 1 -19z
m1663 2 c0 -13 -5 -18 -15 -14 -11 5 -12 9 -2 20 16 18 17 17 17 -6z m35 -20
c3 -6 -1 -7 -9 -4 -18 7 -21 14 -7 14 6 0 13 -4 16 -10z m1005 -43 c0 -10 5
-15 10 -12 6 3 10 2 10 -4 0 -5 -4 -12 -9 -15 -5 -3 -16 15 -25 41 -13 41 -13
45 -1 29 8 -11 15 -28 15 -39z m-1027 -8 c-9 -9 -12 -7 -10 9 1 14 5 18 11 12
7 -7 6 -14 -1 -21z m34 -1 c-3 -7 -5 -2 -5 12 0 14 2 19 5 13 2 -7 2 -19 0
-25z m410 0 c-3 -7 -5 -2 -5 12 0 14 2 19 5 13 2 -7 2 -19 0 -25z m623 -79
c12 -23 20 -43 18 -45 -3 -2 -14 17 -26 41 -27 56 -20 60 8 4z m179 -4 c0 -5
-4 -3 -9 5 -5 8 -9 22 -9 30 0 16 17 -16 18 -35z m-789 18 c0 -3 -9 -3 -20 0
-17 4 -20 2 -15 -13 3 -11 0 -20 -10 -23 -11 -5 -14 0 -12 16 1 12 6 25 11 28
9 7 46 0 46 -8z m435 -69 c17 -43 36 -89 43 -101 15 -26 16 -46 2 -38 -12 8
-56 101 -81 173 -30 87 2 57 36 -34z m-850 66 c-4 -6 -10 -8 -14 -6 -4 3 -8
-1 -8 -9 0 -8 4 -12 10 -8 5 3 7 -5 5 -18 -2 -15 -10 -23 -25 -24 -16 -1 -22
3 -20 16 2 10 6 21 10 25 8 8 -1 24 -14 24 -5 0 -9 -13 -9 -29 0 -25 -4 -30
-22 -29 -13 1 -29 6 -37 12 -12 9 -13 7 -7 -9 5 -15 4 -17 -5 -8 -14 14 -2 36
14 26 28 -17 47 -10 47 19 0 26 3 28 41 28 25 0 38 -4 34 -10z m378 -53 c31
-4 31 -4 -5 -5 -38 -2 -38 -2 -36 36 1 36 1 36 5 5 4 -27 9 -32 36 -36z m-632
-48 c-12 -12 -19 -24 -15 -28 4 -3 9 0 11 7 3 6 9 12 14 12 6 0 7 -5 3 -12 -5
-8 -2 -9 9 -5 12 5 17 1 17 -13 0 -11 9 -24 20 -30 11 -6 20 -7 20 -1 0 5 -7
11 -15 15 -8 3 -15 15 -15 26 0 11 -7 20 -15 20 -8 0 -15 4 -15 10 0 6 9 6 23
1 13 -5 21 -15 19 -26 -3 -12 1 -16 12 -12 8 3 18 1 22 -5 4 -7 3 -8 -4 -4 -7
4 -12 4 -12 -1 0 -14 16 -34 26 -32 5 1 20 1 34 0 20 -1 22 -3 10 -11 -8 -5
-10 -10 -4 -10 20 0 35 25 23 37 -8 8 -7 13 0 18 7 4 10 1 9 -7 -2 -7 3 -12
10 -10 8 1 11 -2 7 -8 -3 -5 -1 -10 5 -10 6 0 8 -4 5 -10 -3 -5 1 -10 10 -10
9 0 13 5 10 10 -3 6 -2 10 4 10 5 0 12 -6 15 -12 5 -10 7 -10 12 0 3 6 10 12
15 12 6 0 7 -4 4 -10 -3 -5 1 -10 10 -10 9 0 13 5 10 10 -8 13 10 13 33 0 9
-5 29 -14 45 -20 l27 -10 0 -144 c0 -105 -3 -147 -12 -153 -7 -4 -72 -10 -144
-13 -108 -4 -134 -8 -148 -23 -10 -10 -28 -17 -40 -15 -20 3 -21 8 -24 172 -2
144 -5 166 -17 156 -12 -10 -12 -8 -2 14 6 13 13 23 15 21 2 -2 10 1 16 8 15
13 -2 37 -20 30 -7 -2 -22 6 -34 19 -19 21 -21 21 -15 3 6 -20 6 -20 -6 -1 -9
15 -9 21 -1 24 7 2 12 10 12 17 0 14 31 37 39 29 3 -2 -6 -14 -18 -25z m49 27
c0 -3 -4 -8 -10 -11 -5 -3 -10 -1 -10 4 0 6 5 11 10 11 6 0 10 -2 10 -4z m55
-26 c3 -5 -4 -6 -15 -3 -11 3 -22 9 -25 13 -3 5 4 6 15 3 11 -3 22 -9 25 -13z
m85 -15 c7 -9 8 -15 2 -15 -5 0 -12 7 -16 15 -3 8 -4 15 -2 15 2 0 9 -7 16
-15z m890 -11 c0 -8 16 -50 36 -92 47 -101 68 -146 95 -207 12 -27 32 -73 45
-102 13 -28 24 -57 24 -63 0 -6 5 -8 10 -5 6 4 10 3 8 -2 -3 -15 23 -93 32
-93 12 0 41 -60 34 -71 -3 -5 -1 -9 5 -9 6 0 18 -17 28 -37 14 -30 14 -38 3
-41 -14 -5 110 -55 250 -102 101 -33 100 -39 -3 -9 -39 12 -82 22 -94 23 -11
0 -19 4 -17 7 7 12 -40 19 -51 8 -7 -7 -4 -8 9 -3 14 5 17 4 11 -5 -4 -8 1
-24 13 -41 l21 -28 -58 18 c-139 44 -445 171 -499 208 -7 5 -16 28 -18 52 -5
40 -4 42 18 38 22 -4 23 -1 25 56 0 34 7 122 13 196 7 74 12 168 11 208 -2 50
1 72 9 72 7 0 10 6 7 14 -6 16 12 38 25 30 4 -3 8 -12 8 -20z m-735 -24 c3 -5
1 -10 -4 -10 -6 0 -11 5 -11 10 0 6 2 10 4 10 3 0 8 -4 11 -10z m-1367 -27
c-21 -2 -57 -2 -80 0 -24 2 -7 4 37 4 44 0 63 -2 43 -4z m-328 -13 c20 -6 15
-8 -25 -9 -36 0 -46 2 -35 9 17 11 25 11 60 0z m1737 4 c-3 -3 -12 -4 -19 -1
-8 3 -5 6 6 6 11 1 17 -2 13 -5z m-2032 -24 c-8 -13 -45 -13 -65 0 -11 7 -3
10 28 10 26 0 41 -4 37 -10z m3548 3 c-7 -2 -19 -2 -25 0 -7 3 -2 5 12 5 14 0
19 -2 13 -5z m-2505 -25 c18 -18 16 -262 -2 -281 -21 -20 -168 -27 -634 -27
-294 -1 -408 2 -418 11 -11 9 -14 44 -14 153 l0 141 67 3 c38 2 70 5 72 8 2 2
210 4 461 4 341 0 459 -3 468 -12z m-1081 -20 c-3 -8 -6 -5 -6 6 -1 11 2 17 5
13 3 -3 4 -12 1 -19z m1683 -62 c0 -2 -7 -7 -16 -10 -8 -3 -12 -2 -9 4 6 10
25 14 25 6z m-6 -42 c3 -8 2 -12 -4 -9 -6 3 -10 1 -10 -6 0 -7 -3 -10 -6 -6
-7 6 2 37 10 37 2 0 7 -7 10 -16z m-156 -24 c12 0 13 -3 5 -11 -14 -14 -33 -3
-32 19 0 11 3 12 6 5 2 -7 12 -13 21 -13z m172 -10 c0 -5 -5 -10 -11 -10 -5 0
-7 5 -4 10 3 6 8 10 11 10 2 0 4 -4 4 -10z m-112 -20 c4 -13 3 -13 -11 -2 -9
8 -22 10 -28 6 -8 -4 -9 -3 -5 5 10 16 38 10 44 -9z m37 -10 c-3 -5 -11 -10
-16 -10 -6 0 -7 5 -4 10 3 6 11 10 16 10 6 0 7 -4 4 -10z m-85 -29 c0 -6 -4
-12 -8 -15 -5 -3 -9 1 -9 9 0 8 4 15 9 15 4 0 8 -4 8 -9z m15 -31 c4 -6 3 -10
-2 -9 -20 3 -34 -2 -28 -11 3 -5 -1 -10 -10 -10 -10 0 -13 5 -9 12 5 8 2 9 -9
5 -9 -3 -19 -1 -23 5 -5 7 2 9 19 6 14 -3 32 -1 39 3 16 11 16 11 23 -1z m-77
-42 c9 -11 10 -18 2 -23 -6 -4 -9 -1 -8 6 2 7 -2 13 -9 14 -6 0 -15 4 -20 9
-5 5 -3 6 5 2 7 -4 12 -2 12 5 0 7 1 10 3 8 1 -2 8 -11 15 -21z m-48 -6 c0
-12 -3 -12 -17 -1 -10 7 -20 14 -22 16 -2 1 6 1 18 0 11 -1 21 -8 21 -15z
m-10 -26 c0 -2 -9 -2 -20 1 -11 3 -20 9 -20 15 0 5 9 4 20 -2 11 -6 20 -12 20
-14z m75 -6 c-3 -5 -12 -10 -18 -10 -7 0 -6 4 3 10 19 12 23 12 15 0z m-1445
-20 c0 -5 -4 -10 -10 -10 -5 0 -10 5 -10 10 0 6 5 10 10 10 6 0 10 -4 10 -10z
m1897 3 c-20 -2 -52 -2 -70 0 -17 2 0 4 38 4 39 0 53 -2 32 -4z m313 3 c0 -3
-4 -8 -10 -11 -5 -3 -10 -1 -10 4 0 6 5 11 10 11 6 0 10 -2 10 -4z m-1797 -23
c-7 -2 -21 -2 -30 0 -10 3 -4 5 12 5 17 0 24 -2 18 -5z m1332 -13 c-11 -19 34
-28 145 -29 71 -1 130 -7 137 -13 10 -8 13 -49 13 -154 0 -131 -2 -144 -19
-154 -11 -5 -75 -10 -143 -10 -97 0 -128 -3 -146 -16 -39 -27 -49 -7 -50 113
-1 60 -4 136 -8 169 -8 76 4 102 45 100 16 0 28 -3 26 -6z m118 3 c-13 -2 -33
-2 -45 0 -13 2 -3 4 22 4 25 0 35 -2 23 -4z m60 0 c-7 -2 -19 -2 -25 0 -7 3
-2 5 12 5 14 0 19 -2 13 -5z m247 -10 c26 -12 63 -17 158 -17 110 -1 125 -3
138 -20 19 -27 20 -291 2 -303 -7 -4 -69 -8 -138 -8 -76 0 -140 -6 -163 -14
-53 -18 -69 -9 -62 31 4 18 2 95 -4 172 -14 178 -6 197 69 159z m233 4 c-36
-7 -70 -7 -105 0 -50 10 -47 10 52 10 99 0 102 0 53 -10z m-2080 -4 c-7 -2
-19 -2 -25 0 -7 3 -2 5 12 5 14 0 19 -2 13 -5z m173 -59 c13 -16 7 -259 -8
-286 -8 -16 -28 -18 -192 -18 -153 0 -186 3 -196 15 -16 20 -7 272 10 289 26
26 365 26 386 0z m555 4 c15 -28 5 -263 -12 -284 -9 -11 -47 -14 -181 -14 -98
0 -178 4 -189 10 -17 10 -19 22 -19 148 0 94 4 142 12 150 8 8 66 12 195 12
178 0 183 -1 194 -22z m2356 -314 c-3 -3 -12 -4 -19 -1 -8 3 -5 6 6 6 11 1 17
-2 13 -5z m-2143 -25 c-6 -11 -24 -2 -24 11 0 5 7 7 15 4 8 -4 12 -10 9 -15z
m2183 15 c-3 -3 -12 -4 -19 -1 -8 3 -5 6 6 6 11 1 17 -2 13 -5z m-2247 -54 c0
-5 -5 -10 -11 -10 -5 0 -7 5 -4 10 3 6 8 10 11 10 2 0 4 -4 4 -10z m30 6 c0
-3 -4 -8 -10 -11 -5 -3 -10 -1 -10 4 0 6 5 11 10 11 6 0 10 -2 10 -4z m88 -3
c-10 -2 -18 -10 -18 -16 0 -9 -2 -9 -8 -1 -4 7 -18 14 -32 17 -14 2 -2 4 25 4
28 1 42 -1 33 -4z m150 0 c-10 -2 -26 -2 -35 0 -10 3 -2 5 17 5 19 0 27 -2 18
-5z m2177 -163 c3 -5 1 -10 -4 -10 -6 0 -11 5 -11 10 0 6 2 10 4 10 3 0 8 -4
11 -10z m-640 -5 c-23 -8 -83 -10 -79 -3 3 4 24 8 47 7 23 0 38 -2 32 -4z
m270 -15 c3 -6 -1 -7 -9 -4 -18 7 -21 14 -7 14 6 0 13 -4 16 -10z m390 -10 c3
-6 -1 -7 -9 -4 -18 7 -21 14 -7 14 6 0 13 -4 16 -10z m-885 -10 c0 -5 -2 -10
-4 -10 -3 0 -8 5 -11 10 -3 6 -1 10 4 10 6 0 11 -4 11 -10z m80 0 c0 -5 -15
-9 -32 -9 l-33 1 30 8 c17 4 31 8 33 9 1 0 2 -3 2 -9z m210 0 c0 -5 -4 -10
-10 -10 -5 0 -10 5 -10 10 0 6 5 10 10 10 6 0 10 -4 10 -10z m498 -15 c-3 -3
-9 2 -12 12 -6 14 -5 15 5 6 7 -7 10 -15 7 -18z m-1351 -14 c0 -11 -5 -18 -9
-15 -4 3 -5 11 -1 19 7 21 12 19 10 -4z m1447 4 c3 -8 1 -15 -3 -15 -5 0 -11
7 -15 15 -3 8 -1 15 3 15 5 0 11 -7 15 -15z m-1249 -4 c3 -5 2 -12 -3 -15 -5
-3 -9 1 -9 9 0 17 3 19 12 6z m59 -6 c3 -8 1 -15 -4 -15 -6 0 -10 7 -10 15 0
8 2 15 4 15 2 0 6 -7 10 -15z m50 0 c-4 -8 -7 -15 -9 -15 -2 0 -5 7 -9 15 -3
9 0 15 9 15 9 0 12 -6 9 -15z m-477 -11 c-3 -3 -12 -4 -19 -1 -8 3 -5 6 6 6
11 1 17 -2 13 -5z m203 -20 c0 -8 -5 -12 -10 -9 -6 4 -8 11 -5 16 9 14 15 11
15 -7z m228 1 c-6 -6 -157 -9 -162 -4 -4 3 22 7 56 8 35 1 64 4 66 6 2 1 12 0
23 -2 11 -3 18 -7 17 -8z m-578 -21 c0 -11 -5 -10 -20 3 -11 10 -20 18 -20 19
0 1 9 0 20 -3 11 -3 20 -12 20 -19z m85 8 c-3 -3 -11 0 -18 7 -9 10 -8 11 6 5
10 -3 15 -9 12 -12z m309 9 c4 -5 -3 -7 -14 -4 -23 6 -26 13 -6 13 8 0 17 -4
20 -9z m-889 -11 c3 -5 1 -10 -4 -10 -6 0 -11 5 -11 10 0 6 2 10 4 10 3 0 8
-4 11 -10z m40 0 c-3 -5 -12 -10 -18 -10 -7 0 -6 4 3 10 19 12 23 12 15 0z
m342 -22 c-3 -7 -5 -2 -5 12 0 14 2 19 5 13 2 -7 2 -19 0 -25z m-1707 8 c0 -2
-11 -6 -25 -8 -14 -3 -25 -1 -25 3 0 5 11 9 25 9 14 0 25 -2 25 -4z m75 -14
c-3 -3 -11 0 -18 7 -9 10 -8 11 6 5 10 -3 15 -9 12 -12z m992 -7 c0 -8 -4 -12
-9 -9 -5 3 -6 10 -3 15 9 13 12 11 12 -6z m53 -2 c0 -10 -4 -14 -8 -8 -4 6
-11 13 -16 18 -5 4 -2 7 7 7 10 0 17 -8 17 -17z m85 7 c3 -5 1 -10 -4 -10 -6
0 -11 5 -11 10 0 6 2 10 4 10 3 0 8 -4 11 -10z m145 0 c0 -5 -4 -10 -10 -10
-5 0 -10 5 -10 10 0 6 5 10 10 10 6 0 10 -4 10 -10z m180 2 c0 -5 -7 -9 -15
-9 -8 0 -12 4 -9 9 3 4 9 8 15 8 5 0 9 -4 9 -8z m-1616 -20 c-16 -2 -21 -9
-18 -25 4 -21 4 -21 -5 -2 -11 25 4 46 27 37 14 -6 14 -7 -4 -10z m409 -2 c3
-11 1 -20 -4 -20 -5 0 -9 9 -9 20 0 11 2 20 4 20 2 0 6 -9 9 -20z m-463 -2 c0
-4 -4 -8 -9 -8 -6 0 -12 4 -15 8 -3 5 1 9 9 9 8 0 15 -4 15 -9z m181 -21 c-8
-8 -11 -7 -11 4 0 20 13 34 18 19 3 -7 -1 -17 -7 -23z m71 26 c-6 -2 -10 -9
-6 -14 3 -5 1 -9 -5 -9 -5 0 -12 4 -15 9 -6 9 10 19 29 19 6 0 4 -2 -3 -5z
m103 -3 c-6 -9 7 -14 27 -11 4 0 5 -6 2 -14 -5 -13 -8 -13 -21 0 -18 18 -37
20 -27 3 5 -10 3 -10 -7 0 -12 11 -12 14 1 22 20 13 33 13 25 0z m952 -6 c2
-6 -3 -11 -10 -11 -8 0 -14 6 -14 14 0 15 19 12 24 -3z m-727 2 c0 -2 -7 -6
-15 -10 -8 -3 -15 -1 -15 4 0 6 7 10 15 10 8 0 15 -2 15 -4z m165 -5 c3 -5 1
-12 -5 -16 -5 -3 -10 1 -10 9 0 18 6 21 15 7z m875 1 c0 -4 -11 -8 -25 -8 -14
0 -25 4 -25 8 0 4 11 8 25 8 14 0 25 -4 25 -8z m-1549 -11 c7 11 9 10 9 -3 0
-10 -7 -18 -15 -18 -8 0 -15 8 -14 18 0 12 2 13 6 3 5 -11 7 -11 14 0z m1727
2 c-10 -2 -26 -2 -35 0 -10 3 -2 5 17 5 19 0 27 -2 18 -5z m-1648 -43 c0 -5
-2 -10 -4 -10 -3 0 -8 5 -11 10 -3 6 -1 10 4 10 6 0 11 -4 11 -10z m3766 -116
c-4 -9 -9 -15 -11 -12 -3 3 -3 13 1 22 4 9 9 15 11 12 3 -3 3 -13 -1 -22z m-9
-110 c-3 -3 -12 -4 -19 -1 -8 3 -5 6 6 6 11 1 17 -2 13 -5z m-167 -99 c0 -8
-4 -15 -10 -15 -5 0 -7 7 -4 15 4 8 8 15 10 15 2 0 4 -7 4 -15z m46 -1 c-18
-17 -18 -18 -20 -56 -1 -16 2 -28 6 -28 4 0 8 9 8 19 0 11 4 22 10 26 5 3 7
12 3 20 -8 22 10 18 24 -5 11 -17 10 -18 -5 -13 -12 4 -14 3 -7 -5 6 -5 19
-13 30 -16 11 -3 5 -4 -13 -2 -20 1 -31 -2 -29 -8 2 -6 -3 -18 -11 -26 -12
-11 -16 -12 -20 -2 -2 6 -11 12 -20 13 -14 0 -13 2 3 9 11 5 15 9 9 9 -13 1
-6 49 10 68 6 7 17 12 24 13 10 0 9 -4 -2 -16z m131 10 c-3 -3 -12 -4 -19 -1
-8 3 -5 6 6 6 11 1 17 -2 13 -5z m46 -1 c-7 -2 -19 -2 -25 0 -7 3 -2 5 12 5
14 0 19 -2 13 -5z m-96 -28 c0 -8 -4 -12 -9 -9 -5 3 -6 10 -3 15 9 13 12 11
12 -6z m20 -7 c-3 -8 -6 -5 -6 6 -1 11 2 17 5 13 3 -3 4 -12 1 -19z m-151 -10
c-2 -7 -8 -24 -14 -38 -8 -19 -11 -21 -11 -7 -1 18 16 57 23 57 3 0 3 -6 2
-12z m139 -54 c-13 -21 -14 -28 -4 -34 6 -5 18 -6 26 -3 8 3 13 -2 13 -13 0
-16 -2 -17 -10 -4 -8 13 -10 12 -11 -5 -1 -17 -2 -17 -6 -2 -5 18 -23 24 -23
6 0 -14 -23 10 -39 40 -14 26 -5 43 10 21 8 -11 12 -12 16 -2 2 6 11 12 19 12
8 0 14 5 14 12 0 6 3 8 6 5 4 -4 -1 -18 -11 -33z m44 -5 c1 -3 -6 -6 -14 -6
-10 0 -14 6 -10 14 3 8 5 20 6 26 0 11 17 -19 18 -34z m-82 -91 c-3 -8 -6 -5
-6 6 -1 11 2 17 5 13 3 -3 4 -12 1 -19z m25 -40 c-7 -30 -28 -40 -29 -15 -2
17 0 19 7 7 7 -11 10 -2 11 30 1 36 2 40 8 20 4 -14 5 -33 3 -42z m75 20 c-3
-7 -5 -2 -5 12 0 14 2 19 5 13 2 -7 2 -19 0 -25z m-157 0 c0 -18 -2 -20 -9 -8
-6 8 -7 18 -5 22 9 14 14 9 14 -14z m32 -62 c-2 -37 -8 -64 -13 -60 -5 3 -9
-2 -9 -10 0 -9 -4 -16 -10 -16 -15 0 -12 16 5 30 10 8 15 29 14 64 -2 72 0 83
9 70 4 -7 5 -42 4 -78z m89 75 c-7 -5 -11 -13 -7 -19 3 -6 2 -13 -4 -17 -5 -3
-10 2 -10 13 0 21 8 32 24 32 6 0 5 -4 -3 -9z m-163 -66 c0 -25 -4 -45 -9 -45
-5 0 -9 20 -9 45 0 25 4 45 10 45 5 0 9 -20 8 -45z m42 22 c11 -5 9 -6 -4 -4
-11 1 -21 9 -23 17 -3 10 -2 11 4 4 4 -6 15 -14 23 -17z m105 -26 c-3 -6 -11
-8 -17 -5 -6 4 -5 9 3 15 16 10 23 4 14 -10z m-112 -13 c3 -12 2 -29 -3 -37
-10 -17 -12 -13 -15 32 -2 32 10 36 18 5z m-3739 -18 c-16 -31 -31 -42 -20
-15 3 8 1 15 -5 15 -6 0 -8 -17 -6 -40 2 -22 0 -40 -4 -40 -8 0 -13 15 -10 33
0 4 -5 7 -12 7 -8 0 -7 4 3 10 12 8 13 12 2 19 -10 6 -8 10 8 14 12 3 19 10
15 16 -4 7 4 11 19 11 24 0 24 -1 10 -30z m72 8 c3 -10 10 -16 15 -13 5 4 9 1
9 -4 0 -6 -6 -11 -12 -11 -7 0 -13 -11 -13 -24 0 -13 3 -22 8 -19 4 2 7 11 7
19 0 8 9 14 23 13 16 -1 18 -2 5 -6 -17 -4 -23 -16 -19 -36 1 -5 -4 -5 -10 -1
-8 4 -9 0 -4 -16 4 -14 3 -20 -3 -16 -5 3 -9 -5 -9 -19 0 -14 3 -25 8 -25 5 0
9 -5 9 -11 0 -5 -5 -7 -12 -3 -8 5 -9 2 -5 -9 4 -11 1 -17 -9 -17 -8 0 -12 5
-9 10 3 6 4 14 1 19 -8 12 -62 -3 -59 -16 1 -5 -4 -10 -12 -10 -7 0 -11 6 -8
13 2 7 -1 14 -9 17 -7 2 -5 3 5 1 9 -1 24 4 31 12 11 11 16 11 20 1 6 -16 38
23 32 40 -3 6 0 14 7 17 9 3 8 7 -2 14 -8 6 -12 19 -8 31 4 17 1 21 -19 21
-13 0 -24 5 -24 11 0 6 7 8 16 5 13 -5 15 -2 11 13 -6 26 31 24 39 -1z m755
-3 c3 2 5 -4 5 -15 0 -13 -4 -16 -12 -10 -6 6 -15 6 -19 2 -5 -4 -5 -2 -1 5 3
6 2 14 -4 18 -6 4 -7 11 -4 17 5 7 11 5 19 -5 7 -9 14 -15 16 -12z m-653 -17
c19 -19 14 -37 -9 -33 -28 6 -37 15 -16 15 10 0 17 4 17 10 0 5 -6 7 -14 4 -8
-3 -17 -1 -21 5 -9 15 28 14 43 -1z m285 6 c11 -11 -3 -24 -18 -18 -8 4 -12
10 -9 15 6 11 18 12 27 3z m646 -48 c0 -6 -3 -6 -6 2 -2 6 -10 9 -16 5 -7 -3
-9 -3 -5 2 4 4 2 15 -4 24 -8 10 -4 9 10 -3 12 -11 22 -24 21 -30z m2701 18
c0 -8 -4 -14 -8 -14 -4 0 -8 9 -8 19 0 11 4 17 8 15 4 -3 8 -12 8 -20z m-102
-14 c-1 -16 -4 -30 -9 -30 -4 0 -6 8 -4 18 2 9 4 23 4 30 2 26 10 10 9 -18z
m222 10 c-12 -22 -25 -26 -35 -10 -3 5 0 7 8 4 8 -3 17 2 20 10 4 9 9 16 12
16 3 0 1 -9 -5 -20z m-3912 -12 c-2 -14 2 -22 9 -20 15 2 13 -19 -2 -30 -16
-12 -23 -9 -30 13 -5 14 -2 25 6 30 11 7 11 9 1 9 -7 0 -10 5 -7 10 11 18 26
10 23 -12z m19 0 c-3 -8 -6 -5 -6 6 -1 11 2 17 5 13 3 -3 4 -12 1 -19z m253
12 c0 -5 -4 -10 -9 -10 -5 0 -11 -8 -13 -17 -2 -13 -6 -10 -15 10 -12 25 -11
27 12 27 14 0 25 -4 25 -10z m850 -4 c0 -3 -4 -8 -10 -11 -5 -3 -10 -1 -10 4
0 6 5 11 10 11 6 0 10 -2 10 -4z m2243 -27 c-17 -17 -37 -1 -22 17 8 10 15 12
23 4 7 -7 7 -13 -1 -21z m-3253 11 c0 -5 -4 -10 -10 -10 -5 0 -10 5 -10 10 0
6 5 10 10 10 6 0 10 -4 10 -10z m3740 -22 c0 -5 -4 -8 -10 -8 -5 0 -10 10 -10
23 0 18 2 19 10 7 5 -8 10 -18 10 -22z m-3700 14 c0 -5 -7 -9 -15 -9 -8 0 -15
4 -15 9 0 4 7 8 15 8 8 0 15 -4 15 -8z m60 -2 c0 -5 -4 -10 -10 -10 -5 0 -10
5 -10 10 0 6 5 10 10 10 6 0 10 -4 10 -10z m90 -16 c0 -8 -5 -14 -12 -14 -6 0
-8 3 -5 7 4 3 2 12 -5 20 -8 11 -7 12 6 7 9 -3 16 -12 16 -20z m441 4 c-9 -24
-31 -37 -31 -18 0 6 5 8 11 4 8 -4 9 0 4 15 -4 15 -2 21 9 21 12 0 13 -5 7
-22z m111 4 c-7 -2 -10 -8 -7 -12 3 -5 13 -7 23 -4 14 5 15 4 2 -5 -19 -14
-53 -14 -45 -1 3 6 -2 10 -12 10 -10 0 -25 5 -33 11 -12 8 -9 10 13 6 15 -2
27 -1 27 3 0 5 10 6 22 2 12 -3 17 -7 10 -10z m378 8 c0 -5 -6 -10 -14 -10
-11 0 -12 -5 -3 -25 7 -13 19 -26 27 -29 8 -2 5 -4 -7 -5 -17 -1 -23 5 -24 22
l-2 22 -4 -22 c-5 -25 -18 -30 -29 -11 -5 7 -3 8 6 3 10 -6 11 -4 4 6 -14 23
-10 44 11 51 30 9 35 9 35 -2z m-787 -7 c-7 -2 -19 -2 -25 0 -7 3 -2 5 12 5
14 0 19 -2 13 -5z m44 -13 c1 -11 -2 -20 -5 -20 -4 0 -8 9 -9 20 -1 11 2 20 5
20 4 0 8 -9 9 -20z m600 10 c-16 -5 -34 -15 -40 -23 -8 -10 -20 -12 -37 -7
-21 7 -22 8 -4 9 11 1 29 8 40 16 10 8 30 14 44 14 24 -1 24 -1 -3 -9z m2638
-2 c2 -7 7 -26 9 -43 5 -27 4 -28 -9 -12 -7 11 -11 26 -8 34 3 8 0 19 -8 24
-10 6 -11 9 -1 9 7 0 15 -6 17 -12z m37 -13 c3 -13 1 -22 -3 -19 -9 5 -13 44
-5 44 2 0 6 -11 8 -25z m-3807 -5 c3 -5 1 -10 -4 -10 -6 0 -11 5 -11 10 0 6 2
10 4 10 3 0 8 -4 11 -10z m185 6 c0 -3 -4 -8 -10 -11 -5 -3 -10 -1 -10 4 0 6
5 11 10 11 6 0 10 -2 10 -4z m34 -4 c-6 -4 -14 -14 -17 -22 -4 -10 -6 -8 -6 8
-1 15 5 22 17 22 10 0 13 -3 6 -8z m272 -5 c4 -4 -2 -7 -14 -7 -11 0 -24 5
-27 10 -7 11 30 8 41 -3z m364 -6 c-1 -15 -20 -35 -27 -28 -4 5 -1 12 7 17 10
7 11 10 3 10 -7 0 -13 4 -13 10 0 5 7 7 15 4 8 -4 15 -9 15 -13z m288 7 c-5
-13 -38 -20 -38 -8 0 8 17 18 33 19 5 1 7 -4 5 -11z m59 -10 c-1 -13 -6 -26
-12 -30 -6 -4 -1 -8 10 -9 l20 0 -20 -8 c-28 -12 -36 -4 -25 23 5 13 6 27 2
32 -4 4 -1 4 6 0 6 -4 12 -2 12 3 0 6 2 11 5 11 3 0 4 -10 2 -22z m2341 -13
c0 -19 -3 -35 -8 -35 -5 0 -7 55 -1 68 5 11 9 -4 9 -33z m192 31 c0 -3 -4 -8
-10 -11 -5 -3 -10 -1 -10 4 0 6 5 11 10 11 6 0 10 -2 10 -4z m-3449 -29 c-10
-9 -11 -8 -5 6 3 10 9 15 12 12 3 -3 0 -11 -7 -18z m3609 4 c0 -30 -17 -34
-22 -6 -4 17 -1 25 8 25 8 0 14 -9 14 -19z m-3740 -41 c0 -32 -3 -38 -16 -33
-12 4 -13 8 -3 13 8 5 10 19 6 39 -4 20 -3 30 3 26 6 -3 10 -24 10 -45z m187
28 c-3 -8 -6 -5 -6 6 -1 11 2 17 5 13 3 -3 4 -12 1 -19z m1070 0 c-3 -8 -6 -5
-6 6 -1 11 2 17 5 13 3 -3 4 -12 1 -19z m43 11 c0 -4 -6 -10 -12 -12 -10 -4
-10 -7 0 -15 10 -7 10 -11 -3 -22 -13 -11 -15 -8 -15 22 0 24 5 35 15 35 8 0
15 -4 15 -8z m1907 -39 c11 -7 12 -9 3 -7 -8 2 -24 0 -35 -6 -18 -9 -19 -9 -6
6 7 10 9 17 3 17 -9 0 -9 14 -2 40 1 3 5 -5 10 -17 5 -12 17 -26 27 -33z m53
39 c0 -6 -5 -20 -12 -32 -11 -21 -11 -21 -18 -2 -5 14 -2 22 9 27 12 6 12 7
-4 5 -11 -2 -19 -9 -17 -16 1 -7 -3 -11 -10 -9 -7 3 -14 12 -16 21 -3 13 4 17
32 17 20 0 36 -5 36 -11z m-3180 -9 c0 -5 -2 -10 -4 -10 -3 0 -8 5 -11 10 -3
6 -1 10 4 10 6 0 11 -4 11 -10z m230 2 c0 -4 -9 -8 -20 -9 -11 -1 -20 2 -20 5
0 4 9 8 20 9 11 1 20 -2 20 -5z m77 -34 c-17 -10 -26 0 -20 22 5 19 6 19 18 3
10 -13 10 -20 2 -25z m343 27 c0 -8 6 -15 13 -16 10 0 10 -2 0 -6 -21 -8 -15
-23 10 -23 16 0 18 -3 8 -9 -26 -16 -46 -2 -47 35 -1 18 3 34 7 34 5 0 9 -7 9
-15z m2714 0 c-4 -8 -8 -15 -10 -15 -2 0 -4 7 -4 15 0 8 4 15 10 15 5 0 7 -7
4 -15z m-2505 -7 c0 -7 -4 -22 -8 -32 -7 -19 -8 -19 -15 0 -4 11 -3 20 3 22 6
2 9 8 5 13 -3 5 0 9 5 9 6 0 11 -6 10 -12z m2351 8 c0 -3 -4 -8 -10 -11 -5 -3
-10 -1 -10 4 0 6 5 11 10 11 6 0 10 -2 10 -4z m310 -11 c0 -2 -9 -3 -19 -2
-11 0 -18 5 -15 9 4 6 34 0 34 -7z m-3527 -13 c-25 -4 -30 -17 -10 -25 7 -3 5
-6 -5 -6 -12 -1 -15 -6 -11 -18 3 -10 2 -15 -2 -10 -5 4 -9 22 -9 40 -2 31 0
33 29 28 25 -4 26 -6 8 -9z m1262 0 c0 -20 -18 -18 -21 1 -1 10 3 16 9 14 7
-2 12 -9 12 -15z m1808 11 c-7 -2 -19 -2 -25 0 -7 3 -2 5 12 5 14 0 19 -2 13
-5z m-3330 -23 c3 -11 1 -23 -4 -26 -5 -3 -9 6 -9 20 0 31 6 34 13 6z m337 16
c0 -2 -9 -6 -20 -9 -11 -3 -20 -1 -20 4 0 5 9 9 20 9 11 0 20 -2 20 -4z m92
-6 c3 -25 2 -30 -6 -32 -5 -2 -10 7 -11 20 -2 21 13 33 17 12z m55 4 c-3 -3
-12 -4 -19 -1 -8 3 -5 6 6 6 11 1 17 -2 13 -5z m403 -4 c0 -5 -8 -6 -17 -3
-15 6 -16 4 -5 -9 8 -10 9 -18 3 -22 -6 -4 -15 2 -20 13 -15 28 -14 31 14 31
14 0 25 -4 25 -10z m283 -37 c-2 -25 1 -49 6 -53 6 -3 6 -11 1 -20 -7 -12 -10
-10 -17 7 -10 26 -4 113 7 113 4 0 6 -21 3 -47z m107 37 c0 -5 -2 -10 -4 -10
-3 0 -8 5 -11 10 -3 6 -1 10 4 10 6 0 11 -4 11 -10z m438 -11 c-22 -12 -24
-31 -3 -23 8 4 15 1 15 -7 0 -7 -3 -9 -7 -6 -3 4 -11 3 -17 -3 -8 -6 -12 0
-14 21 -2 24 1 29 20 29 21 -1 21 -2 6 -11z m1212 -11 c0 -19 -2 -20 -10 -8
-13 19 -13 30 0 30 6 0 10 -10 10 -22z m370 15 c-1 -5 -8 -19 -16 -33 -8 -14
-13 -17 -10 -7 3 10 6 25 6 33 0 8 5 14 10 14 6 0 10 -3 10 -7z m-2805 -23
c-3 -5 -13 -6 -21 -3 -12 4 -13 8 -3 14 15 9 32 2 24 -11z m835 10 c0 -5 -4
-10 -10 -10 -5 0 -10 5 -10 10 0 6 5 10 10 10 6 0 10 -4 10 -10z m-937 -7 c-7
-2 -19 -2 -25 0 -7 3 -2 5 12 5 14 0 19 -2 13 -5z m184 -4 c-9 -5 -22 -7 -29
-3 -8 5 -9 2 -5 -9 3 -10 2 -17 -3 -17 -11 0 -13 23 -3 33 3 4 18 7 32 7 23
-1 24 -2 8 -11z m438 1 c-3 -5 -12 -7 -20 -3 -21 7 -19 13 6 13 11 0 18 -4 14
-10z m42 4 c-3 -3 -12 -4 -19 -1 -8 3 -5 6 6 6 11 1 17 -2 13 -5z m2344 -7
c-6 -8 -7 -17 -3 -22 4 -4 0 -6 -8 -3 -8 3 -25 1 -37 -3 -14 -5 -23 -5 -23 1
0 6 10 10 23 10 18 0 19 2 7 11 -12 8 -10 9 7 4 12 -3 24 -1 28 5 3 5 9 10 12
10 3 0 0 -6 -6 -13z m-1925 -12 c-11 -8 -25 -16 -30 -16 -6 -1 3 -5 19 -9 l30
-8 -32 -1 c-18 0 -33 2 -33 6 0 12 35 42 50 42 11 0 10 -3 -4 -14z m44 5 c0
-5 -5 -10 -11 -10 -5 0 -7 5 -4 10 3 6 8 10 11 10 2 0 4 -4 4 -10z m150 0 c11
-7 7 -10 -17 -10 -18 0 -33 5 -33 10 0 13 30 13 50 0z m120 -5 c0 -16 -28 -15
-34 1 -3 8 3 12 15 11 10 -1 19 -6 19 -12z m640 0 c-8 -10 -7 -14 2 -18 8 -4
7 -6 -4 -6 -10 -1 -18 4 -18 9 0 6 -5 10 -11 10 -5 0 -7 -4 -4 -10 3 -5 -1
-10 -9 -10 -10 0 -13 6 -9 17 5 12 3 14 -7 8 -8 -5 -11 -4 -7 1 3 6 22 10 42
11 28 1 34 -2 25 -12z m424 -16 c-3 -5 -11 -9 -17 -9 -7 0 -6 4 3 10 10 6 11
10 3 10 -7 0 -13 5 -13 11 0 8 5 8 15 -1 8 -7 12 -16 9 -21z m372 1 c1 -16 -3
-27 -7 -24 -14 8 -9 54 5 54 1 0 1 -13 2 -30z m34 0 c0 -16 -4 -30 -8 -30 -5
0 -7 14 -4 30 2 17 6 30 8 30 2 0 4 -13 4 -30z m42 -2 c-8 -8 -9 -4 -5 13 4
13 8 18 11 10 2 -7 -1 -18 -6 -23z m208 5 c-1 -24 -2 -26 -11 -10 -5 9 -7 22
-4 27 10 17 15 11 15 -17z m157 5 c-3 -8 -6 -5 -6 6 -1 11 2 17 5 13 3 -3 4
-12 1 -19z m-3560 -2 c0 -8 -6 -12 -15 -9 -11 5 -11 7 0 14 7 5 13 9 14 9 0 0
1 -6 1 -14z m383 -2 c0 -2 -11 -4 -25 -4 -14 0 -25 4 -25 9 0 4 11 6 25 3 14
-2 25 -6 25 -8z m190 -21 c0 -21 -2 -23 -22 -12 -29 15 -38 24 -16 16 10 -3
20 -2 23 3 4 6 -3 10 -15 10 -12 0 -19 4 -16 9 12 18 46 -1 46 -26z m140 26
c0 -5 5 -7 12 -3 6 4 8 3 5 -4 -4 -5 -16 -8 -27 -5 -11 3 -17 9 -14 14 7 12
24 11 24 -2z m471 -3 c-9 -11 -9 -15 1 -18 8 -3 6 -7 -5 -11 -12 -5 -17 -1
-17 12 0 16 10 26 29 30 2 1 -2 -5 -8 -13z m296 8 c-3 -3 -12 -4 -19 -1 -8 3
-5 6 6 6 11 1 17 -2 13 -5z m227 -36 c-3 -10 0 -18 6 -18 6 0 8 -5 5 -10 -5
-8 -11 -8 -20 0 -9 7 -16 6 -25 -5 -7 -8 -19 -15 -28 -15 -9 0 0 12 21 28 26
20 35 32 31 47 -4 16 -3 17 5 5 6 -8 8 -23 5 -32z m106 38 c0 -3 -4 -8 -10
-11 -5 -3 -10 -1 -10 4 0 6 5 11 10 11 6 0 10 -2 10 -4z m55 -6 c3 -5 -3 -10
-14 -10 -11 0 -23 5 -26 10 -3 6 3 10 14 10 11 0 23 -4 26 -10z m48 -4 c3 -8
1 -16 -5 -18 -6 -2 -4 -11 7 -22 10 -9 24 -15 31 -12 8 3 14 1 14 -5 0 -7 -12
-8 -32 -4 -24 4 -29 3 -18 -4 12 -8 10 -12 -10 -19 -14 -5 -32 -7 -40 -3 -11
4 -9 7 8 9 12 2 22 10 22 17 0 9 -7 12 -17 9 -16 -5 -16 -4 1 10 10 8 16 22
13 30 -6 14 0 26 14 26 4 0 9 -6 12 -14z m277 -3 c0 -10 -4 -24 -9 -31 -7 -11
-9 -11 -14 2 -3 8 -1 18 5 22 7 4 6 9 -3 15 -11 7 -10 9 4 9 10 0 17 -7 17
-17z m611 3 c5 3 14 -7 19 -21 12 -33 12 -35 0 -35 -5 0 -10 9 -10 20 0 11 -7
20 -15 20 -8 0 -15 8 -14 18 0 10 3 12 6 4 2 -6 9 -10 14 -6z m229 10 c0 -2
-7 -6 -15 -10 -8 -3 -15 -1 -15 4 0 6 7 10 15 10 8 0 15 -2 15 -4z m310 -22
c0 -22 -16 -17 -17 6 -1 11 2 18 8 15 5 -4 9 -13 9 -21z m157 4 c-3 -8 -6 -5
-6 6 -1 11 2 17 5 13 3 -3 4 -12 1 -19z m-3587 8 c0 -2 -7 -6 -15 -10 -8 -3
-15 -1 -15 4 0 6 7 10 15 10 8 0 15 -2 15 -4z m44 -3 c-5 -5 -12 -12 -15 -16
-3 -5 -9 -2 -12 7 -5 12 0 16 15 16 12 0 17 -3 12 -7z m139 1 c-7 -3 -10 -11
-7 -19 3 -7 2 -15 -3 -18 -5 -3 -10 5 -11 19 -1 17 3 24 16 23 9 0 12 -3 5 -5z
m197 -9 c0 -8 -2 -15 -4 -15 -2 0 -6 7 -10 15 -3 8 -1 15 4 15 6 0 10 -7 10
-15z m178 3 c-2 -7 2 -12 9 -11 7 2 10 -4 6 -13 -5 -15 -7 -15 -15 0 -5 9 -15
13 -21 9 -7 -4 -6 0 2 10 16 20 22 22 19 5z m160 5 c-10 -2 -26 -2 -35 0 -10
3 -2 5 17 5 19 0 27 -2 18 -5z m146 -9 c9 -24 7 -28 -7 -15 -8 6 -17 8 -21 4
-4 -4 -4 0 0 10 8 21 20 22 28 1z m40 -21 c-9 -52 -14 -54 -14 -5 0 23 5 42
10 42 7 0 8 -14 4 -37z m133 15 c-3 -8 -6 -5 -6 6 -1 11 2 17 5 13 3 -3 4 -12
1 -19z m51 -3 c-3 -3 -9 2 -12 12 -6 14 -5 15 5 6 7 -7 10 -15 7 -18z m2437
16 c3 -5 1 -12 -5 -16 -5 -3 -10 1 -10 9 0 18 6 21 15 7z m-2165 -11 c0 -5 -5
-10 -11 -10 -5 0 -7 5 -4 10 3 6 8 10 11 10 2 0 4 -4 4 -10z m570 -6 c0 -2 -9
-4 -21 -4 -11 0 -18 4 -14 10 5 8 35 3 35 -6z m854 9 c-5 -5 -12 -12 -16 -18
-4 -6 -8 -2 -8 8 0 9 7 17 17 17 9 0 12 -3 7 -7z m353 -25 c-3 -7 -5 -2 -5 12
0 14 2 19 5 13 2 -7 2 -19 0 -25z m33 -3 c0 -5 -5 -3 -10 5 -5 8 -10 20 -10
25 0 6 5 3 10 -5 5 -8 10 -19 10 -25z m807 13 c-3 -8 -6 -5 -6 6 -1 11 2 17 5
13 3 -3 4 -12 1 -19z m-3474 5 c-7 -2 -19 -2 -25 0 -7 3 -2 5 12 5 14 0 19 -2
13 -5z m275 3 c-2 -1 -12 -8 -22 -16 -13 -10 -17 -10 -12 -2 12 20 -12 14 -27
-8 -8 -11 -17 -17 -20 -14 -10 10 35 42 60 42 13 0 23 -1 21 -2z m437 -4 c-5
-4 -10 -13 -11 -19 -3 -37 -5 -43 -13 -43 -4 0 -6 12 -3 26 3 16 -1 30 -9 35
-10 6 -5 9 16 9 17 0 26 -4 20 -8z m282 -14 c-3 -8 -6 -5 -6 6 -1 11 2 17 5
13 3 -3 4 -12 1 -19z m1249 -15 c-11 -11 -17 4 -9 23 7 18 8 18 11 1 2 -10 1
-21 -2 -24z m374 27 c0 -5 -4 -10 -9 -10 -6 0 -13 5 -16 10 -3 6 1 10 9 10 9
0 16 -4 16 -10z m-2157 -11 c-6 -6 -10 -17 -9 -23 2 -6 1 -8 -1 -3 -3 4 -9 5
-14 1 -5 -3 -9 -2 -9 1 0 10 24 34 35 35 5 0 4 -5 -2 -11z m596 -16 c0 -25 -1
-25 -8 -8 -5 11 -7 23 -4 28 8 14 13 7 12 -20z m97 14 c4 -4 -4 -7 -19 -7 -16
0 -27 -7 -30 -17 -3 -12 -5 -9 -6 8 -1 21 3 26 24 25 13 -1 27 -5 31 -9z m681
-19 c-3 -7 -5 -2 -5 12 0 14 2 19 5 13 2 -7 2 -19 0 -25z m62 10 c-1 -17 -2
-19 -6 -5 -2 9 -9 17 -15 17 -5 0 -8 -7 -4 -15 3 -9 0 -15 -8 -15 -9 0 -12 7
-9 20 8 29 43 26 42 -2z m168 -10 c-3 -7 -5 -2 -5 12 0 14 2 19 5 13 2 -7 2
-19 0 -25z m275 -17 c1 -23 -3 -46 -9 -52 -6 -6 -9 8 -7 43 3 63 3 63 9 56 3
-2 6 -24 7 -47z m448 39 c0 -5 -2 -10 -4 -10 -3 0 -8 5 -11 10 -3 6 -1 10 4
10 6 0 11 -4 11 -10z m-2873 -22 c-3 -8 -6 -5 -6 6 -1 11 2 17 5 13 3 -3 4
-12 1 -19z m63 18 c0 -3 -4 -8 -10 -11 -5 -3 -10 -1 -10 4 0 6 5 11 10 11 6 0
10 -2 10 -4z m37 -18 c-3 -8 -6 -5 -6 6 -1 11 2 17 5 13 3 -3 4 -12 1 -19z
m103 -10 c0 -17 -2 -19 -16 -7 -13 11 -15 9 -9 -17 5 -27 5 -27 -5 -5 -6 13
-8 32 -5 42 8 24 35 13 35 -13z m177 10 c-3 -8 -6 -5 -6 6 -1 11 2 17 5 13 3
-3 4 -12 1 -19z m623 12 c0 -5 -8 -10 -17 -10 -15 0 -16 2 -3 10 19 12 20 12
20 0z m520 -6 c0 -8 -5 -12 -10 -9 -6 4 -8 11 -5 16 9 14 15 11 15 -7z m306
-10 c-6 -33 -8 -35 -26 -24 -13 8 -12 10 3 10 10 0 15 5 12 10 -3 6 -3 15 0
20 11 18 16 11 11 -16z m426 1 c3 -13 2 -22 -2 -20 -11 7 -20 45 -10 45 4 0
10 -11 12 -25z m-1412 -10 c0 -14 -2 -25 -4 -25 -2 0 -6 11 -8 25 -3 14 -1 25
3 25 5 0 9 -11 9 -25z m57 19 c-3 -3 -12 -4 -19 -1 -8 3 -5 6 6 6 11 1 17 -2
13 -5z m153 -9 c0 -8 -4 -15 -10 -15 -5 0 -7 7 -4 15 4 8 8 15 10 15 2 0 4 -7
4 -15z m619 -25 c0 -10 -3 -8 -9 5 -12 27 -12 43 0 25 5 -8 9 -22 9 -30z m548
20 c-1 -11 -2 -20 -4 -20 -1 0 -7 9 -13 20 -8 16 -8 20 4 20 9 0 14 -8 13 -20z
m353 16 c0 -3 -4 -8 -10 -11 -5 -3 -10 -1 -10 4 0 6 5 11 10 11 6 0 10 -2 10
-4z m120 -11 c0 -8 -4 -15 -9 -15 -5 0 -11 7 -15 15 -3 9 0 15 9 15 8 0 15 -7
15 -15z m380 0 c0 -8 -4 -15 -10 -15 -5 0 -7 7 -4 15 4 8 8 15 10 15 2 0 4 -7
4 -15z m-2998 -37 c-6 -6 -7 0 -4 19 5 21 7 23 10 9 2 -10 0 -22 -6 -28z
m1175 36 c-3 -3 -12 -4 -19 -1 -8 3 -5 6 6 6 11 1 17 -2 13 -5z m650 -31 c-3
-10 -5 -4 -5 12 0 17 2 24 5 18 2 -7 2 -21 0 -30z m140 31 c-3 -3 -12 -4 -19
-1 -8 3 -5 6 6 6 11 1 17 -2 13 -5z m83 -5 c-11 -7 -4 -9 28 -6 24 3 40 1 35
-3 -4 -5 -35 -11 -68 -13 -42 -4 -53 -3 -37 4 13 5 20 13 17 19 -3 6 4 10 17
10 19 0 20 -2 8 -11z m260 7 c0 -3 -4 -8 -10 -11 -5 -3 -10 -1 -10 4 0 6 5 11
10 11 6 0 10 -2 10 -4z m350 0 c0 -3 -4 -8 -10 -11 -5 -3 -10 -1 -10 4 0 6 5
11 10 11 6 0 10 -2 10 -4z m-2583 -12 c-3 -3 -12 -4 -19 -1 -8 3 -5 6 6 6 11
1 17 -2 13 -5z m99 -10 c-9 -8 -14 -19 -11 -24 3 -5 -3 -7 -12 -6 -10 2 -22
-2 -26 -8 -6 -7 -7 -6 -4 4 2 8 10 14 17 12 8 -2 10 3 6 13 -3 9 -2 13 3 10 5
-3 12 -1 16 5 3 5 11 10 16 10 6 0 3 -7 -5 -16z m2260 -9 c0 -14 -4 -25 -8
-25 -9 0 -16 23 -10 38 8 21 20 13 18 -13z m-2451 5 c-3 -5 -11 -10 -16 -10
-6 0 -7 5 -4 10 3 6 11 10 16 10 6 0 7 -4 4 -10z m515 0 c0 -5 -2 -10 -4 -10
-3 0 -8 5 -11 10 -3 6 -1 10 4 10 6 0 11 -4 11 -10z m840 1 c0 -6 -9 -9 -19
-8 -11 0 -17 5 -15 9 7 11 34 10 34 -1z m53 2 c-7 -2 -19 -2 -25 0 -7 3 -2 5
12 5 14 0 19 -2 13 -5z m177 -8 c-7 -8 -14 -15 -15 -15 -2 0 -5 7 -9 15 -4 10
1 15 16 15 17 0 18 -2 8 -15z m70 -5 c8 -15 8 -20 -3 -20 -7 0 -13 9 -13 20 0
11 1 20 3 20 1 0 7 -9 13 -20z m284 12 c3 -5 -1 -9 -9 -9 -8 0 -12 4 -9 9 3 4
7 8 9 8 2 0 6 -4 9 -8z m56 4 c0 -2 -7 -7 -16 -10 -8 -3 -12 -2 -9 4 6 10 25
14 25 6z m-2430 -15 c0 -5 -9 -7 -20 -4 -11 3 -20 7 -20 9 0 2 9 4 20 4 11 0
20 -4 20 -9z m183 -11 c-3 -11 -7 -20 -9 -20 -2 0 -4 9 -4 20 0 11 4 20 9 20
5 0 7 -9 4 -20z m1492 2 c-3 -3 -11 0 -18 7 -9 10 -8 11 6 5 10 -3 15 -9 12
-12z m661 -14 c-2 -18 -7 -32 -12 -30 -12 3 -12 23 -2 45 13 26 18 21 14 -15z
m371 -5 c-3 -10 -5 -4 -5 12 0 17 2 24 5 18 2 -7 2 -21 0 -30z m443 17 c0 -13
-6 -20 -17 -19 -11 0 -13 3 -5 6 6 2 12 11 12 19 0 8 2 14 5 14 3 0 5 -9 5
-20z m-2780 -5 c0 -8 -4 -15 -10 -15 -5 0 -7 7 -4 15 4 8 8 15 10 15 2 0 4 -7
4 -15z m140 5 c0 -5 -4 -10 -10 -10 -5 0 -10 5 -10 10 0 6 5 10 10 10 6 0 10
-4 10 -10z m660 6 c0 -3 -4 -8 -10 -11 -5 -3 -10 -1 -10 4 0 6 5 11 10 11 6 0
10 -2 10 -4z m150 -6 c0 -5 -5 -10 -11 -10 -5 0 -7 5 -4 10 3 6 8 10 11 10 2
0 4 -4 4 -10z m505 -12 c6 -4 2 -8 -7 -8 -10 0 -18 7 -18 17 0 9 3 12 8 7 4
-5 12 -12 17 -16z m42 -10 c-3 -7 -5 -2 -5 12 0 14 2 19 5 13 2 -7 2 -19 0
-25z m94 -8 c6 0 5 -8 -1 -20 -6 -11 -16 -20 -23 -20 -8 0 -7 4 3 11 10 7 11
12 4 15 -6 3 -9 16 -5 32 5 25 6 25 9 5 2 -13 8 -23 13 -23z m571 22 c-7 -2
-10 -7 -8 -11 3 -4 -1 -8 -9 -8 -10 0 -11 5 -4 19 6 10 15 15 22 11 8 -5 8 -8
-1 -11z m718 8 c0 -5 -4 -10 -10 -10 -5 0 -10 5 -10 10 0 6 5 10 10 10 6 0 10
-4 10 -10z m-2770 -10 c0 -5 -5 -10 -11 -10 -5 0 -7 5 -4 10 3 6 8 10 11 10 2
0 4 -4 4 -10z m1580 6 c0 -2 -7 -9 -15 -16 -13 -11 -14 -10 -9 4 5 14 24 23
24 12z m361 -14 c-7 -2 -18 1 -23 6 -8 8 -4 9 13 5 13 -4 18 -8 10 -11z m49 8
c0 -5 -2 -10 -4 -10 -3 0 -8 5 -11 10 -3 6 -1 10 4 10 6 0 11 -4 11 -10z m163
-11 c4 -3 -2 -14 -13 -24 -18 -17 -20 -17 -20 -1 0 10 5 14 11 10 8 -4 9 1 4
17 -4 14 -4 20 1 14 5 -5 12 -12 17 -16z m217 -4 c0 -14 -2 -25 -4 -25 -2 0
-6 11 -8 25 -3 14 -1 25 3 25 5 0 9 -11 9 -25z m114 10 c4 -11 -2 -15 -22 -14
-17 1 -20 3 -9 6 9 2 15 9 12 14 -4 5 -2 9 3 9 6 0 12 -7 16 -15z m-1447 -17
c-3 -8 -6 -5 -6 6 -1 11 2 17 5 13 3 -3 4 -12 1 -19z m637 7 c-4 -8 -8 -15
-10 -15 -2 0 -4 7 -4 15 0 8 4 15 10 15 5 0 7 -7 4 -15z m86 -6 c0 -4 -7 -6
-15 -3 -8 4 -15 10 -15 15 0 4 7 6 15 3 8 -4 15 -10 15 -15z m827 -1 c-3 -8
-6 -5 -6 6 -1 11 2 17 5 13 3 -3 4 -12 1 -19z m-2527 8 c0 -3 -4 -8 -10 -11
-5 -3 -10 -1 -10 4 0 6 5 11 10 11 6 0 10 -2 10 -4z m637 -2 c-3 -3 -12 -4
-19 -1 -8 3 -5 6 6 6 11 1 17 -2 13 -5z m196 -1 c-7 -2 -19 -2 -25 0 -7 3 -2
5 12 5 14 0 19 -2 13 -5z m637 -3 c0 -5 -2 -10 -4 -10 -3 0 -8 5 -11 10 -3 6
-1 10 4 10 6 0 11 -4 11 -10z m90 6 c0 -3 -4 -8 -10 -11 -5 -3 -10 -1 -10 4 0
6 5 11 10 11 6 0 10 -2 10 -4z m460 0 c0 -3 -4 -8 -10 -11 -5 -3 -10 -1 -10 4
0 6 5 11 10 11 6 0 10 -2 10 -4z m-2000 -21 c0 -8 -7 -15 -15 -15 -13 0 -14 3
-3 15 16 18 18 18 18 0z m1825 -14 c-3 -6 -11 -11 -16 -11 -5 0 -4 6 3 14 14
16 24 13 13 -3z m132 -3 c-3 -8 -6 -5 -6 6 -1 11 2 17 5 13 3 -3 4 -12 1 -19z
m170 -15 c-3 -10 -5 -4 -5 12 0 17 2 24 5 18 2 -7 2 -21 0 -30z m430 15 c-3
-8 -6 -5 -6 6 -1 11 2 17 5 13 3 -3 4 -12 1 -19z m-1740 -10 c-3 -8 -6 -5 -6
6 -1 11 2 17 5 13 3 -3 4 -12 1 -19z m80 0 c-3 -8 -6 -5 -6 6 -1 11 2 17 5 13
3 -3 4 -12 1 -19z m606 2 c3 -11 1 -20 -4 -20 -5 0 -9 9 -9 20 0 11 2 20 4 20
2 0 6 -9 9 -20z m77 10 c0 -5 -7 -7 -15 -4 -9 4 -18 -2 -24 -17 l-10 -24 2 25
c1 19 7 26 24 28 13 1 23 -3 23 -8z m78 3 c-10 -2 -18 -11 -18 -19 0 -8 -5
-14 -11 -14 -5 0 -7 5 -3 11 3 6 0 15 -7 20 -9 6 -3 8 21 8 19 -1 27 -3 18 -6z
m629 -35 c-3 -7 -5 -2 -5 12 0 14 2 19 5 13 2 -7 2 -19 0 -25z m-2377 6 c0 -8
-5 -12 -10 -9 -6 4 -8 11 -5 16 9 14 15 11 15 -7z m2270 12 c0 -3 -4 -8 -10
-11 -5 -3 -10 -1 -10 4 0 6 5 11 10 11 6 0 10 -2 10 -4z m-2180 -36 c0 -5 -5
-10 -11 -10 -5 0 -7 5 -4 10 3 6 8 10 11 10 2 0 4 -4 4 -10z m1688 -25 c-3 -3
-9 2 -12 12 -6 14 -5 15 5 6 7 -7 10 -15 7 -18z m-981 -7 c-3 -8 -6 -5 -6 6
-1 11 2 17 5 13 3 -3 4 -12 1 -19z m1230 -40 c-3 -8 -6 -5 -6 6 -1 11 2 17 5
13 3 -3 4 -12 1 -19z"/>
<path d="M1716 2805 c-3 -9 0 -15 9 -15 9 0 12 6 9 15 -4 8 -7 15 -9 15 -2 0
-5 -7 -9 -15z"/>
<path d="M1775 2810 c-3 -5 1 -10 10 -10 9 0 13 5 10 10 -3 6 -8 10 -10 10 -2
0 -7 -4 -10 -10z"/>
<path d="M1753 2775 c0 -7 10 -10 24 -7 13 2 23 6 23 7 0 1 -10 5 -23 7 -14 3
-24 0 -24 -7z"/>
<path d="M1716 2765 c4 -8 11 -15 16 -15 6 0 5 6 -2 15 -7 8 -14 15 -16 15 -2
0 -1 -7 2 -15z"/>
<path d="M1540 2745 c-15 -18 -19 -74 -7 -82 6 -3 7 -1 3 5 -4 7 -3 12 3 12 5
0 13 -5 17 -11 10 -17 24 10 24 47 0 35 -22 51 -40 29z m27 -34 c1 -14 -3 -18
-13 -14 -17 6 -19 33 -1 33 7 0 13 -9 14 -19z"/>
<path d="M1790 2751 c0 -6 5 -13 10 -16 6 -3 10 1 10 9 0 9 -4 16 -10 16 -5 0
-10 -4 -10 -9z"/>
<path d="M1740 2728 c0 -9 5 -20 10 -23 13 -8 13 5 0 25 -8 13 -10 13 -10 -2z"/>
<path d="M1671 2684 c0 -11 3 -14 6 -6 3 7 2 16 -1 19 -3 4 -6 -2 -5 -13z"/>
<path d="M1716 2597 c3 -10 9 -15 12 -12 3 3 0 11 -7 18 -10 9 -11 8 -5 -6z"/>
<path d="M1498 2463 c7 -3 16 -2 19 1 4 3 -2 6 -13 5 -11 0 -14 -3 -6 -6z"/>
<path d="M1667 2441 c1 -2 -5 -10 -13 -18 -8 -9 -12 -18 -8 -22 4 -3 9 0 11 7
6 17 23 15 23 -3 0 -8 -7 -15 -15 -15 -8 0 -15 -7 -15 -16 0 -8 -4 -12 -10 -9
-5 3 -10 2 -10 -4 0 -16 24 -19 51 -5 15 7 30 10 34 6 5 -4 5 1 2 11 -4 10 -7
25 -7 33 0 8 -5 14 -11 14 -7 0 -17 6 -23 13 -6 7 -10 11 -9 8z m33 -61 c0 -5
-4 -10 -10 -10 -5 0 -10 5 -10 10 0 6 5 10 10 10 6 0 10 -4 10 -10z"/>
<path d="M1486 2388 c3 -5 10 -6 15 -3 13 9 11 12 -6 12 -8 0 -12 -4 -9 -9z"/>
<path d="M1420 2379 c0 -5 5 -7 10 -4 6 3 10 8 10 11 0 2 -4 4 -10 4 -5 0 -10
-5 -10 -11z"/>
<path d="M1605 2361 c-3 -5 -1 -13 5 -16 16 -10 -8 -35 -26 -28 -8 3 -14 1
-14 -5 0 -16 31 -23 46 -11 7 6 18 8 24 4 5 -3 10 1 10 9 0 8 -9 20 -20 26
-11 6 -18 15 -15 21 4 5 4 9 1 9 -3 0 -7 -4 -11 -9z"/>
<path d="M1570 2340 c0 -5 7 -10 16 -10 8 0 12 5 9 10 -3 6 -10 10 -16 10 -5
0 -9 -4 -9 -10z"/>
<path d="M1460 2299 c0 -5 5 -7 10 -4 6 3 10 8 10 11 0 2 -4 4 -10 4 -5 0 -10
-5 -10 -11z"/>
<path d="M1420 2295 c0 -2 6 -8 13 -14 10 -8 14 -7 14 2 0 8 -6 14 -14 14 -7
0 -13 -1 -13 -2z"/>
<path d="M1494 2286 c-10 -8 -17 -16 -14 -19 3 -2 14 4 24 14 23 22 18 25 -10
5z"/>
<path d="M1520 2278 c-33 -50 -34 -51 -17 -45 9 3 18 1 21 -6 4 -7 4 0 2 15
-1 15 1 29 7 31 5 1 8 8 6 15 -3 8 -10 3 -19 -10z"/>
<path d="M1470 2210 c0 -11 4 -20 9 -20 17 0 19 15 5 28 -12 11 -14 9 -14 -8z"/>
<path d="M1399 2218 c0 -2 -2 -11 -4 -21 -3 -15 -1 -16 11 -6 16 13 19 29 4
29 -5 0 -10 -1 -11 -2z"/>
<path d="M1530 2194 c0 -8 5 -12 10 -9 6 4 8 11 5 16 -9 14 -15 11 -15 -7z"/>
<path d="M3590 3531 c0 -6 4 -13 10 -16 6 -3 7 1 4 9 -7 18 -14 21 -14 7z"/>
<path d="M3830 3303 c13 -20 40 -21 40 -1 0 5 -5 6 -10 3 -6 -4 -18 -1 -27 7
-15 12 -15 11 -3 -9z"/>
<path d="M3838 3263 c6 -2 18 -2 25 0 6 3 1 5 -13 5 -14 0 -19 -2 -12 -5z"/>
<path d="M3314 3247 c-12 -7 -19 -18 -17 -24 5 -14 42 -18 44 -5 0 4 2 15 4
25 4 20 -2 21 -31 4z"/>
<path d="M3868 3243 c7 -3 16 -2 19 1 4 3 -2 6 -13 5 -11 0 -14 -3 -6 -6z"/>
<path d="M3168 3193 c7 -3 16 -2 19 1 4 3 -2 6 -13 5 -11 0 -14 -3 -6 -6z"/>
<path d="M3627 3182 c-16 -18 -15 -19 15 -19 18 0 28 2 21 4 -7 3 -9 11 -6 19
7 20 -11 17 -30 -4z"/>
<path d="M3780 3176 c0 -9 -4 -14 -10 -11 -5 3 -10 1 -10 -4 0 -6 5 -11 10
-11 13 0 25 28 16 37 -3 4 -6 -1 -6 -11z"/>
<path d="M3225 3360 c4 -6 11 -8 16 -5 14 9 11 15 -7 15 -8 0 -12 -5 -9 -10z"/>
<path d="M3060 3336 c0 -2 7 -7 16 -10 8 -3 12 -2 9 4 -6 10 -25 14 -25 6z"/>
<path d="M3150 3336 c0 -2 7 -7 16 -10 8 -3 12 -2 9 4 -6 10 -25 14 -25 6z"/>
<path d="M3210 3329 c0 -5 5 -7 10 -4 6 3 10 8 10 11 0 2 -4 4 -10 4 -5 0 -10
-5 -10 -11z"/>
<path d="M3100 2625 c0 -5 5 -17 10 -25 5 -8 10 -10 10 -5 0 6 -5 17 -10 25
-5 8 -10 11 -10 5z"/>
<path d="M1975 2590 c3 -5 8 -10 11 -10 2 0 4 5 4 10 0 6 -5 10 -11 10 -5 0
-7 -4 -4 -10z"/>
<path d="M1755 2490 c4 -6 11 -8 16 -5 14 9 11 15 -7 15 -8 0 -12 -5 -9 -10z"/>
<path d="M3890 761 c0 -6 4 -13 10 -16 6 -3 7 1 4 9 -7 18 -14 21 -14 7z"/>
<path d="M3483 1413 c-7 -2 -13 -9 -13 -14 0 -6 5 -7 10 -4 6 3 10 1 10 -4 0
-6 -5 -11 -11 -11 -6 0 -9 -7 -5 -15 4 -12 2 -13 -12 -6 -14 7 -18 5 -18 -9 0
-12 4 -16 11 -11 5 5 18 7 27 6 11 -2 15 2 11 12 -4 10 0 13 12 11 10 -2 20 3
22 10 3 7 -1 11 -9 10 -7 -2 -12 5 -12 15 2 17 -2 19 -23 10z"/>
<path d="M3540 1380 c0 -10 21 -14 49 -10 9 1 12 -4 7 -16 -6 -17 -5 -16 14 1
23 21 26 29 6 22 -7 -3 -19 0 -25 6 -8 8 -11 8 -11 -1 0 -10 -5 -10 -20 -2
-14 7 -20 7 -20 0z"/>
<path d="M3266 1354 c-9 -8 -16 -11 -16 -6 0 5 -7 9 -15 9 -9 0 -14 -5 -12
-11 3 -10 15 -12 46 -7 9 1 24 31 16 31 -2 0 -11 -7 -19 -16z"/>
<path d="M3385 1360 c-3 -5 1 -10 9 -10 9 0 16 5 16 10 0 6 -4 10 -9 10 -6 0
-13 -4 -16 -10z"/>
<path d="M3542 1350 c2 -6 8 -11 13 -10 5 1 12 -7 16 -17 7 -16 8 -16 8 -1 1
10 -9 22 -20 29 -16 8 -20 8 -17 -1z"/>
<path d="M3800 1343 c0 -13 -5 -23 -12 -23 -6 0 -8 -3 -5 -7 4 -3 16 2 27 12
17 16 20 16 20 2 0 -9 4 -19 10 -22 6 -4 7 2 2 14 -4 11 -11 20 -16 20 -5 -1
-13 5 -17 13 -6 9 -9 7 -9 -9z"/>
<path d="M2797 1330 c-3 -13 0 -20 10 -20 9 0 13 6 9 15 -9 24 47 19 62 -5 7
-12 10 -25 7 -30 -3 -6 1 -7 10 -4 10 4 22 -1 30 -12 17 -22 20 -11 4 17 -5
11 -13 17 -18 15 -4 -3 -12 4 -19 15 -11 18 -9 19 30 18 37 -1 39 -2 18 -9
-26 -8 -23 -10 21 -14 23 -1 25 1 15 16 -9 15 -25 18 -92 18 -73 0 -82 -2 -87
-20z"/>
<path d="M3135 1340 c-3 -5 1 -10 10 -10 9 0 13 5 10 10 -3 6 -8 10 -10 10 -2
0 -7 -4 -10 -10z"/>
<path d="M3645 1340 c-3 -6 1 -7 9 -4 18 7 21 14 7 14 -6 0 -13 -4 -16 -10z"/>
<path d="M3328 1333 c7 -3 16 -2 19 1 4 3 -2 6 -13 5 -11 0 -14 -3 -6 -6z"/>
<path d="M3007 1313 c3 -7 9 -10 14 -7 14 8 11 21 -5 21 -8 0 -12 -6 -9 -14z"/>
<path d="M3365 1321 c-3 -5 -2 -12 3 -15 5 -3 9 1 9 9 0 17 -3 19 -12 6z"/>
<path d="M3496 1322 c-2 -4 4 -8 14 -8 10 0 16 4 14 8 -3 4 -9 8 -14 8 -5 0
-11 -4 -14 -8z"/>
<path d="M2245 1310 c-3 -5 -1 -10 4 -10 6 0 11 5 11 10 0 6 -2 10 -4 10 -3 0
-8 -4 -11 -10z"/>
<path d="M2635 1310 c3 -5 8 -10 11 -10 2 0 4 5 4 10 0 6 -5 10 -11 10 -5 0
-7 -4 -4 -10z"/>
<path d="M2660 1310 c0 -3 16 -6 35 -6 19 0 35 4 35 8 0 5 -16 8 -35 6 -19 -1
-35 -5 -35 -8z"/>
<path d="M3115 1309 c-4 -6 -5 -12 -2 -15 2 -3 7 2 10 11 7 17 1 20 -8 4z"/>
<path d="M2961 1294 c0 -11 3 -14 6 -6 3 7 2 16 -1 19 -3 4 -6 -2 -5 -13z"/>
<path d="M3300 1301 c0 -6 4 -13 10 -16 6 -3 7 1 4 9 -7 18 -14 21 -14 7z"/>
<path d="M2240 1273 c0 -16 5 -20 19 -16 13 3 18 10 13 21 -4 12 -7 13 -10 3
-4 -11 -6 -11 -13 0 -6 10 -9 8 -9 -8z"/>
<path d="M2470 1281 c0 -10 26 -9 36 2 4 4 -2 7 -14 7 -12 0 -22 -4 -22 -9z"/>
<path d="M2570 1280 c-12 -7 -10 -9 7 -7 12 0 19 5 17 9 -6 10 -6 10 -24 -2z"/>
<path d="M3171 1274 c0 -11 3 -14 6 -6 3 7 2 16 -1 19 -3 4 -6 -2 -5 -13z"/>
<path d="M2616 1265 c4 -8 8 -15 10 -15 2 0 4 7 4 15 0 8 -4 15 -10 15 -5 0
-7 -7 -4 -15z"/>
<path d="M3820 1276 c0 -2 7 -7 16 -10 8 -3 12 -2 9 4 -6 10 -25 14 -25 6z"/>
<path d="M2060 1253 c0 -6 5 -15 10 -18 6 -4 7 -11 4 -17 -4 -7 -2 -8 5 -4 6
4 8 12 5 18 -5 7 -1 9 9 5 9 -3 19 -2 21 2 3 5 -5 8 -17 7 -12 -1 -25 3 -29 9
-5 6 -8 6 -8 -2z"/>
<path d="M2346 1248 c3 -5 10 -6 15 -3 13 9 11 12 -6 12 -8 0 -12 -4 -9 -9z"/>
<path d="M2426 1249 c4 -8 30 -6 38 2 3 3 -5 5 -19 5 -13 0 -22 -3 -19 -7z"/>
<path d="M1967 1230 c-3 -11 -2 -19 2 -18 19 2 22 -4 10 -19 -13 -17 0 -9 41
26 3 2 -3 1 -12 -2 -10 -3 -20 -2 -23 3 -3 4 0 10 7 12 8 3 6 6 -4 10 -11 5
-18 0 -21 -12z"/>
<path d="M2020 1233 c8 -3 18 -11 22 -17 5 -7 8 -4 8 7 0 11 -7 17 -22 16 -16
0 -18 -2 -8 -6z"/>
<path d="M2542 1210 c0 -14 2 -19 5 -12 2 6 2 18 0 25 -3 6 -5 1 -5 -13z"/>
<path d="M1213 1207 c-2 -4 -10 -4 -16 -1 -7 4 -8 3 -4 -2 5 -5 21 -9 35 -9
15 0 27 -5 27 -12 0 -6 4 -15 8 -20 5 -4 8 -3 7 2 -1 6 -1 12 0 15 10 28 5 36
-22 35 -17 0 -32 -3 -35 -8z"/>
<path d="M1516 1212 c-2 -4 -1 -14 4 -21 10 -17 31 -5 23 14 -6 16 -19 20 -27
7z"/>
<path d="M780 1206 c0 -2 7 -6 15 -10 8 -3 15 -1 15 4 0 6 -7 10 -15 10 -8 0
-15 -2 -15 -4z"/>
<path d="M1468 1203 c7 -3 16 -2 19 1 4 3 -2 6 -13 5 -11 0 -14 -3 -6 -6z"/>
<path d="M1855 1199 c-4 -6 -5 -12 -2 -15 2 -3 7 2 10 11 7 17 1 20 -8 4z"/>
<path d="M120 1178 c0 -10 -7 -18 -17 -18 -19 0 -15 -7 7 -12 9 -1 17 2 19 7
1 6 9 17 16 25 12 14 12 16 -5 16 -13 0 -20 -7 -20 -18z"/>
<path d="M2101 1184 c0 -11 3 -14 6 -6 3 7 2 16 -1 19 -3 4 -6 -2 -5 -13z"/>
<path d="M2160 1190 c0 -5 5 -10 11 -10 5 0 7 5 4 10 -3 6 -8 10 -11 10 -2 0
-4 -4 -4 -10z"/>
<path d="M2425 1190 c-3 -5 -1 -10 4 -10 6 0 11 5 11 10 0 6 -2 10 -4 10 -3 0
-8 -4 -11 -10z"/>
<path d="M220 1182 c0 -10 38 -13 44 -3 3 3 -6 8 -20 9 -13 1 -24 -2 -24 -6z"/>
<path d="M630 1175 c-7 -9 -8 -15 -2 -15 5 0 12 7 16 15 3 8 4 15 2 15 -2 0
-9 -7 -16 -15z"/>
<path d="M2050 1176 c0 -8 4 -17 9 -20 5 -4 7 3 4 14 -6 23 -13 26 -13 6z"/>
<path d="M520 1171 c0 -6 4 -13 10 -16 6 -3 7 1 4 9 -7 18 -14 21 -14 7z"/>
<path d="M746 1172 c-3 -5 1 -9 9 -9 8 0 12 4 9 9 -3 4 -7 8 -9 8 -2 0 -6 -4
-9 -8z"/>
<path d="M3863 1163 c20 -22 9 -40 -18 -29 -8 3 -14 0 -12 -6 1 -6 -9 -15 -23
-19 -22 -7 -21 -8 10 -7 50 0 57 -1 42 -11 -11 -7 -11 -9 2 -14 10 -4 16 -1
16 8 0 8 7 15 16 15 14 0 14 1 0 16 -9 8 -14 19 -11 23 2 5 -5 17 -18 27 l-22
19 18 -22z m17 -43 c0 -5 -5 -10 -11 -10 -5 0 -7 5 -4 10 3 6 8 10 11 10 2 0
4 -4 4 -10z"/>
<path d="M1820 1160 c0 -5 5 -10 11 -10 5 0 7 5 4 10 -3 6 -8 10 -11 10 -2 0
-4 -4 -4 -10z"/>
<path d="M26 1144 c-4 -9 -4 -19 -1 -22 3 -3 5 0 5 8 0 10 4 10 18 -1 15 -12
16 -12 5 2 -7 9 -10 19 -6 22 3 4 2 7 -4 7 -6 0 -14 -7 -17 -16z"/>
<path d="M420 1145 c0 -8 4 -15 8 -15 5 0 9 7 9 15 0 8 -4 15 -9 15 -4 0 -8
-7 -8 -15z"/>
<path d="M1035 1150 c-3 -6 1 -7 9 -4 18 7 21 14 7 14 -6 0 -13 -4 -16 -10z"/>
<path d="M1891 1144 c0 -11 3 -14 6 -6 3 7 2 16 -1 19 -3 4 -6 -2 -5 -13z"/>
<path d="M3796 1148 c3 -5 10 -6 15 -3 13 9 11 12 -6 12 -8 0 -12 -4 -9 -9z"/>
<path d="M251 1124 c0 -11 3 -14 6 -6 3 7 2 16 -1 19 -3 4 -6 -2 -5 -13z"/>
<path d="M362 1120 c0 -14 2 -19 5 -12 2 6 2 18 0 25 -3 6 -5 1 -5 -13z"/>
<path d="M467 1125 c-4 -8 -3 -16 1 -19 4 -3 9 4 9 15 2 23 -3 25 -10 4z"/>
<path d="M80 1126 c0 -2 7 -6 15 -10 8 -3 15 -1 15 4 0 6 -7 10 -15 10 -8 0
-15 -2 -15 -4z"/>
<path d="M570 1126 c0 -2 7 -7 16 -10 8 -3 12 -2 9 4 -6 10 -25 14 -25 6z"/>
<path d="M745 1109 c-4 -6 -5 -12 -2 -15 2 -3 7 2 10 11 7 17 1 20 -8 4z"/>
<path d="M1480 1109 c0 -5 5 -7 10 -4 6 3 10 8 10 11 0 2 -4 4 -10 4 -5 0 -10
-5 -10 -11z"/>
<path d="M3788 1083 c6 -2 18 -2 25 0 6 3 1 5 -13 5 -14 0 -19 -2 -12 -5z"/>
<path d="M3661 1054 c0 -11 3 -14 6 -6 3 7 2 16 -1 19 -3 4 -6 -2 -5 -13z"/>
<path d="M3780 1060 c0 -5 7 -7 15 -4 8 4 15 8 15 10 0 2 -7 4 -15 4 -8 0 -15
-4 -15 -10z"/>
<path d="M3833 1062 c-9 -6 -7 -11 6 -19 16 -10 18 -9 14 8 -3 10 -6 19 -7 19
0 0 -6 -4 -13 -8z"/>
<path d="M3338 1043 c7 -3 16 -2 19 1 4 3 -2 6 -13 5 -11 0 -14 -3 -6 -6z"/>
<path d="M3728 1033 c6 -2 18 -2 25 0 6 3 1 5 -13 5 -14 0 -19 -2 -12 -5z"/>
<path d="M3846 1003 c-6 -14 -5 -15 5 -6 7 7 10 15 7 18 -3 3 -9 -2 -12 -12z"/>
<path d="M1751 994 c0 -11 3 -14 6 -6 3 7 2 16 -1 19 -3 4 -6 -2 -5 -13z"/>
<path d="M3690 1000 c-12 -7 -10 -9 7 -7 12 0 19 5 17 9 -6 10 -6 10 -24 -2z"/>
<path d="M3558 993 c7 -3 16 -2 19 1 4 3 -2 6 -13 5 -11 0 -14 -3 -6 -6z"/>
<path d="M3739 987 c6 -8 9 -16 6 -18 -2 -3 4 -5 15 -6 18 -2 18 -1 -1 18 -22
22 -37 26 -20 6z"/>
<path d="M3680 970 c0 -5 12 -16 28 -24 15 -9 20 -15 12 -16 -9 0 -16 -8 -16
-19 0 -14 5 -17 18 -12 9 3 17 9 17 14 3 28 -1 37 -14 37 -8 0 -15 4 -15 9 0
5 -7 11 -15 15 -8 3 -15 1 -15 -4z"/>
<path d="M3656 864 c-3 -9 -2 -23 4 -32 7 -14 9 -10 10 16 0 35 -5 41 -14 16z"/>
<path d="M418 853 c7 -3 16 -2 19 1 4 3 -2 6 -13 5 -11 0 -14 -3 -6 -6z"/>
<path d="M3508 853 c7 -3 16 -2 19 1 4 3 -2 6 -13 5 -11 0 -14 -3 -6 -6z"/>
<path d="M3631 844 c0 -11 3 -14 6 -6 3 7 2 16 -1 19 -3 4 -6 -2 -5 -13z"/>
<path d="M3688 853 c7 -3 16 -2 19 1 4 3 -2 6 -13 5 -11 0 -14 -3 -6 -6z"/>
<path d="M3251 834 c0 -11 3 -14 6 -6 3 7 2 16 -1 19 -3 4 -6 -2 -5 -13z"/>
<path d="M760 836 c0 -2 7 -7 16 -10 8 -3 12 -2 9 4 -6 10 -25 14 -25 6z"/>
<path d="M3586 832 c-2 -4 -1 -14 4 -22 7 -11 9 -9 7 8 -1 24 -3 26 -11 14z"/>
<path d="M3680 826 c0 -7 -3 -29 -6 -47 -5 -24 -4 -31 4 -24 14 13 24 85 11
85 -5 0 -9 -6 -9 -14z"/>
<path d="M3491 814 c0 -11 3 -14 6 -6 3 7 2 16 -1 19 -3 4 -6 -2 -5 -13z"/>
<path d="M3711 814 c0 -11 3 -14 6 -6 3 7 2 16 -1 19 -3 4 -6 -2 -5 -13z"/>
<path d="M666 812 c-3 -5 1 -9 9 -9 8 0 12 4 9 9 -3 4 -7 8 -9 8 -2 0 -6 -4
-9 -8z"/>
<path d="M749 803 c-12 -16 -12 -17 2 -6 9 7 20 9 24 5 5 -4 5 -1 1 6 -9 16
-11 15 -27 -5z"/>
<path d="M1101 794 c0 -11 3 -14 6 -6 3 7 2 16 -1 19 -3 4 -6 -2 -5 -13z"/>
<path d="M3552 790 c0 -14 2 -19 5 -12 2 6 2 18 0 25 -3 6 -5 1 -5 -13z"/>
<path d="M3638 803 c6 -2 18 -2 25 0 6 3 1 5 -13 5 -14 0 -19 -2 -12 -5z"/>
<path d="M881 784 c0 -11 3 -14 6 -6 3 7 2 16 -1 19 -3 4 -6 -2 -5 -13z"/>
<path d="M64 782 c3 -5 0 -13 -6 -15 -9 -4 -10 -6 -1 -6 17 -1 25 16 12 25 -7
4 -9 3 -5 -4z"/>
<path d="M476 783 c-22 -4 -26 -7 -15 -13 10 -7 8 -11 -11 -19 -15 -6 -19 -10
-9 -10 9 -1 22 6 29 14 7 8 19 15 26 15 8 0 14 5 14 10 0 6 -1 9 -2 9 -2 -1
-16 -4 -32 -6z"/>
<path d="M990 783 c0 -6 8 -17 18 -24 16 -13 16 -13 2 6 -8 11 -16 22 -17 24
-2 2 -3 0 -3 -6z"/>
<path d="M3171 774 c0 -11 3 -14 6 -6 3 7 2 16 -1 19 -3 4 -6 -2 -5 -13z"/>
<path d="M3273 755 c0 -22 2 -30 4 -17 2 12 2 30 0 40 -3 9 -5 -1 -4 -23z"/>
<path d="M3610 779 c0 -5 5 -7 10 -4 6 3 10 8 10 11 0 2 -4 4 -10 4 -5 0 -10
-5 -10 -11z"/>
<path d="M3708 778 c8 -8 7 -18 -5 -40 -13 -21 -14 -31 -5 -40 9 -9 11 -7 7
10 -2 12 0 22 5 22 12 0 20 28 14 45 -4 8 -11 15 -17 15 -8 0 -7 -4 1 -12z"/>
<path d="M526 765 c-11 -8 -16 -18 -13 -22 4 -3 13 2 21 12 8 11 18 15 26 10
9 -5 11 -4 6 3 -9 15 -17 15 -40 -3z"/>
<path d="M638 773 c7 -3 16 -2 19 1 4 3 -2 6 -13 5 -11 0 -14 -3 -6 -6z"/>
<path d="M1811 764 c0 -11 3 -14 6 -6 3 7 2 16 -1 19 -3 4 -6 -2 -5 -13z"/>
<path d="M3444 755 c-4 -14 -4 -29 0 -32 3 -4 6 4 6 16 0 12 4 19 10 16 6 -3
7 1 4 9 -8 22 -13 20 -20 -9z"/>
<path d="M3532 764 c10 -10 20 -16 22 -13 3 3 -5 11 -17 18 -21 13 -21 12 -5
-5z"/>
<path d="M3411 754 c0 -11 3 -14 6 -6 3 7 2 16 -1 19 -3 4 -6 -2 -5 -13z"/>
<path d="M938 748 c6 -6 18 -8 28 -6 14 3 12 5 -9 10 -19 3 -25 2 -19 -4z"/>
<path d="M3304 749 c-3 -6 -2 -15 3 -20 5 -5 9 -1 9 11 0 23 -2 24 -12 9z"/>
<path d="M3570 745 c0 -8 4 -15 10 -15 5 0 7 7 4 15 -4 8 -8 15 -10 15 -2 0
-4 -7 -4 -15z"/>
<path d="M7 736 c-3 -8 -1 -17 6 -20 9 -3 8 -8 -3 -15 -12 -9 -11 -11 7 -11
20 0 21 3 12 30 -12 34 -15 36 -22 16z"/>
<path d="M80 735 c0 -8 4 -15 10 -15 5 0 7 7 4 15 -4 8 -8 15 -10 15 -2 0 -4
-7 -4 -15z"/>
<path d="M267 733 c3 -7 6 -13 8 -13 2 0 5 6 8 13 3 8 -1 14 -8 14 -7 0 -11
-6 -8 -14z"/>
<path d="M338 730 c-14 -13 -15 -17 -3 -17 8 0 17 7 20 15 8 21 3 22 -17 2z"/>
<path d="M545 741 c-3 -5 0 -13 6 -17 7 -4 9 -3 5 4 -3 5 0 13 6 15 9 4 10 6
1 6 -6 1 -14 -3 -18 -8z"/>
<path d="M748 743 c7 -3 16 -2 19 1 4 3 -2 6 -13 5 -11 0 -14 -3 -6 -6z"/>
<path d="M1328 743 c7 -3 16 -2 19 1 4 3 -2 6 -13 5 -11 0 -14 -3 -6 -6z"/>
<path d="M874 729 c-3 -6 -1 -16 6 -22 10 -9 12 -8 7 5 -3 9 -1 19 6 22 9 3 9
5 0 5 -6 1 -15 -4 -19 -10z"/>
<path d="M1155 729 c-4 -6 -5 -12 -2 -15 2 -3 7 2 10 11 7 17 1 20 -8 4z"/>
<path d="M3544 725 c-3 -8 -4 -20 -2 -27 3 -7 7 -1 10 15 6 29 1 36 -8 12z"/>
<path d="M135 720 c3 -5 8 -10 11 -10 2 0 4 5 4 10 0 6 -5 10 -11 10 -5 0 -7
-4 -4 -10z"/>
<path d="M210 721 c0 -5 9 -7 20 -4 11 3 20 7 20 9 0 2 -9 4 -20 4 -11 0 -20
-4 -20 -9z"/>
<path d="M468 708 c2 -10 7 -18 11 -18 4 0 7 8 8 18 1 10 -4 19 -11 19 -8 0
-11 -8 -8 -19z"/>
<path d="M600 720 c0 -5 5 -10 11 -10 5 0 7 5 4 10 -3 6 -8 10 -11 10 -2 0 -4
-4 -4 -10z"/>
<path d="M689 712 c-11 -13 -12 -22 -4 -38 l11 -22 11 24 c7 16 8 22 0 17 -6
-4 -8 2 -5 15 7 27 7 27 -13 4z"/>
<path d="M771 708 c-9 -25 -4 -47 10 -49 5 -1 18 -3 29 -4 34 -4 35 -5 20 -15
-11 -7 -7 -10 17 -10 17 0 35 5 39 11 4 7 -2 9 -17 7 -14 -2 -23 2 -22 8 1 6
-8 11 -20 10 -16 -1 -21 4 -19 17 2 9 -2 17 -8 17 -6 0 -9 -4 -5 -9 3 -5 0
-13 -6 -17 -8 -5 -10 3 -7 25 5 36 1 40 -11 9z"/>
<path d="M932 721 c-8 -5 -12 -17 -10 -27 5 -18 5 -18 13 1 5 11 13 23 19 27
16 11 -6 10 -22 -1z"/>
<path d="M1489 728 c-5 -18 -6 -38 -1 -34 7 8 12 36 6 36 -2 0 -4 -1 -5 -2z"/>
<path d="M3341 716 c-12 -15 -18 -113 -7 -123 3 -4 6 21 6 53 0 33 5 65 12 72
7 7 9 12 6 12 -3 0 -11 -6 -17 -14z"/>
<path d="M3470 714 c0 -8 5 -12 10 -9 6 4 8 11 5 16 -9 14 -15 11 -15 -7z"/>
<path d="M3626 715 c-3 -9 0 -15 9 -15 16 0 20 16 6 24 -5 3 -11 -1 -15 -9z"/>
<path d="M1092 699 c-8 -12 -9 -18 -4 -15 6 3 13 0 15 -6 3 -7 6 -1 6 15 1 33
0 33 -17 6z"/>
<path d="M1862 695 c0 -16 2 -22 5 -12 2 9 2 23 0 30 -3 6 -5 -1 -5 -18z"/>
<path d="M3571 704 c0 -11 3 -14 6 -6 3 7 2 16 -1 19 -3 4 -6 -2 -5 -13z"/>
<path d="M3595 710 c3 -5 8 -10 11 -10 2 0 4 5 4 10 0 6 -5 10 -11 10 -5 0 -7
-4 -4 -10z"/>
<path d="M230 694 c0 -8 5 -12 10 -9 6 4 8 11 5 16 -9 14 -15 11 -15 -7z"/>
<path d="M315 700 c-16 -6 -14 -8 13 -12 18 -2 35 -1 37 3 7 10 -28 17 -50 9z"/>
<path d="M986 695 c-3 -8 -1 -15 4 -15 13 0 22 18 11 24 -5 3 -11 -1 -15 -9z"/>
<path d="M1450 700 c0 -5 5 -10 11 -10 5 0 7 5 4 10 -3 6 -8 10 -11 10 -2 0
-4 -4 -4 -10z"/>
<path d="M2161 694 c0 -11 3 -14 6 -6 3 7 2 16 -1 19 -3 4 -6 -2 -5 -13z"/>
<path d="M436 686 c3 -8 13 -17 21 -20 12 -5 13 -4 5 7 -7 8 -9 17 -5 20 3 4
-1 7 -10 7 -10 0 -14 -5 -11 -14z"/>
<path d="M518 693 c7 -3 16 -2 19 1 4 3 -2 6 -13 5 -11 0 -14 -3 -6 -6z"/>
<path d="M570 690 c0 -5 5 -10 10 -10 6 0 10 5 10 10 0 6 -4 10 -10 10 -5 0
-10 -4 -10 -10z"/>
<path d="M620 690 c0 -5 7 -7 15 -4 8 4 15 8 15 10 0 2 -7 4 -15 4 -8 0 -15
-4 -15 -10z"/>
<path d="M891 687 c-6 -8 -8 -17 -4 -20 12 -12 19 -7 19 13 0 24 0 24 -15 7z"/>
<path d="M1144 646 c-1 -50 1 -54 21 -52 13 0 21 6 18 13 -3 7 -9 11 -13 8
-14 -9 -22 15 -10 30 8 10 8 19 0 34 -6 12 -12 21 -13 21 -1 0 -2 -24 -3 -54z"/>
<path d="M3186 685 c4 -8 8 -15 10 -15 2 0 4 7 4 15 0 8 -4 15 -10 15 -5 0 -7
-7 -4 -15z"/>
<path d="M3221 682 c-6 -12 -6 -23 0 -33 9 -12 10 -12 6 1 -2 8 0 23 5 33 5 9
6 17 4 17 -3 0 -10 -8 -15 -18z"/>
<path d="M3441 684 c0 -11 3 -14 6 -6 3 7 2 16 -1 19 -3 4 -6 -2 -5 -13z"/>
<path d="M3665 687 c-4 -10 -5 -21 -1 -24 10 -10 18 4 13 24 -4 17 -4 17 -12
0z"/>
<path d="M1040 680 c0 -5 -16 -10 -35 -10 -19 0 -35 -3 -35 -8 0 -4 18 -6 40
-4 26 3 40 9 40 18 0 8 -2 14 -5 14 -3 0 -5 -4 -5 -10z"/>
<path d="M1120 681 c0 -5 5 -13 10 -16 6 -3 10 -2 10 4 0 5 -4 13 -10 16 -5 3
-10 2 -10 -4z"/>
<path d="M1811 674 c0 -11 3 -14 6 -6 3 7 2 16 -1 19 -3 4 -6 -2 -5 -13z"/>
<path d="M3466 675 c4 -8 8 -15 10 -15 2 0 4 7 4 15 0 8 -4 15 -10 15 -5 0 -7
-7 -4 -15z"/>
<path d="M3594 670 c0 -11 3 -20 7 -20 4 0 9 9 12 20 3 12 0 20 -7 20 -6 0
-12 -9 -12 -20z"/>
<path d="M120 670 c-7 -5 -4 -9 9 -13 11 -2 22 1 24 7 5 14 -15 17 -33 6z"/>
<path d="M1403 665 c0 -8 4 -12 9 -9 5 3 6 10 3 15 -9 13 -12 11 -12 -6z"/>
<path d="M1450 670 c0 -5 5 -10 11 -10 5 0 7 5 4 10 -3 6 -8 10 -11 10 -2 0
-4 -4 -4 -10z"/>
<path d="M1561 664 c0 -11 3 -14 6 -6 3 7 2 16 -1 19 -3 4 -6 -2 -5 -13z"/>
<path d="M2511 664 c0 -11 3 -14 6 -6 3 7 2 16 -1 19 -3 4 -6 -2 -5 -13z"/>
<path d="M3361 664 c0 -11 3 -14 6 -6 3 7 2 16 -1 19 -3 4 -6 -2 -5 -13z"/>
<path d="M3566 671 c-6 -9 0 -51 9 -59 3 -3 5 11 5 31 0 37 -4 45 -14 28z"/>
<path d="M3730 670 c0 -5 5 -10 10 -10 6 0 10 5 10 10 0 6 -4 10 -10 10 -5 0
-10 -4 -10 -10z"/>
<path d="M558 663 c7 -3 16 -2 19 1 4 3 -2 6 -13 5 -11 0 -14 -3 -6 -6z"/>
<path d="M1700 661 c0 -6 4 -13 10 -16 6 -3 7 1 4 9 -7 18 -14 21 -14 7z"/>
<path d="M3491 648 c-1 -16 3 -28 8 -28 11 0 24 31 16 38 -3 3 -5 -1 -6 -9 0
-8 -4 -6 -9 6 -8 18 -9 17 -9 -7z"/>
<path d="M1356 645 c4 -8 11 -15 16 -15 6 0 5 6 -2 15 -7 8 -14 15 -16 15 -2
0 -1 -7 2 -15z"/>
<path d="M1861 644 c0 -11 3 -14 6 -6 3 7 2 16 -1 19 -3 4 -6 -2 -5 -13z"/>
<path d="M3111 644 c0 -11 3 -14 6 -6 3 7 2 16 -1 19 -3 4 -6 -2 -5 -13z"/>
<path d="M3533 639 c-2 -23 3 -25 10 -4 4 8 3 16 -1 19 -4 3 -9 -4 -9 -15z"/>
<path d="M240 630 c0 -11 5 -20 11 -20 5 0 7 5 4 10 -3 6 -1 10 4 10 6 0 11 5
11 10 0 6 -7 10 -15 10 -8 0 -15 -9 -15 -20z"/>
<path d="M780 638 c0 -4 7 -8 15 -8 8 0 15 4 15 8 0 5 -7 9 -15 9 -8 0 -15 -4
-15 -9z"/>
<path d="M1030 641 c0 -17 18 -21 24 -6 3 9 0 15 -9 15 -8 0 -15 -4 -15 -9z"/>
<path d="M1245 639 c-9 -14 -2 -20 14 -10 8 6 9 11 3 15 -6 3 -14 1 -17 -5z"/>
<path d="M1440 640 c-10 -6 -9 -9 1 -13 12 -4 12 -6 0 -6 -9 -1 -6 -8 9 -21
27 -24 49 -27 26 -4 -19 18 -20 31 -4 36 8 3 7 6 -3 10 -9 3 -22 3 -29 -2z"/>
<path d="M2046 637 c3 -10 9 -15 12 -12 3 3 0 11 -7 18 -10 9 -11 8 -5 -6z"/>
<path d="M2382 630 c0 -14 2 -19 5 -12 2 6 2 18 0 25 -3 6 -5 1 -5 -13z"/>
<path d="M3420 641 c0 -6 4 -13 10 -16 6 -3 7 1 4 9 -7 18 -14 21 -14 7z"/>
<path d="M3727 626 c-5 -15 -6 -31 -3 -34 8 -8 18 25 14 45 -3 13 -6 10 -11
-11z"/>
<path d="M636 624 c-5 -14 -4 -15 9 -4 17 14 19 20 6 20 -5 0 -12 -7 -15 -16z"/>
<path d="M1088 633 c6 -2 18 -2 25 0 6 3 1 5 -13 5 -14 0 -19 -2 -12 -5z"/>
<path d="M1311 624 c0 -11 3 -14 6 -6 3 7 2 16 -1 19 -3 4 -6 -2 -5 -13z"/>
<path d="M1504 631 c4 -5 0 -12 -6 -14 -8 -4 -9 -6 -2 -6 6 -1 17 6 24 14 10
12 9 15 -4 15 -10 0 -15 -4 -12 -9z"/>
<path d="M1560 621 c0 -25 6 -27 13 -6 4 8 2 17 -3 20 -6 4 -10 -3 -10 -14z"/>
<path d="M1636 625 c-6 -17 5 -26 21 -17 8 5 7 11 -2 19 -10 10 -14 9 -19 -2z"/>
<path d="M2841 624 c0 -11 3 -14 6 -6 3 7 2 16 -1 19 -3 4 -6 -2 -5 -13z"/>
<path d="M505 620 c-4 -6 -10 -8 -15 -5 -5 3 -8 -3 -7 -14 1 -16 5 -18 19 -10
10 6 16 14 13 19 -3 4 1 11 7 13 9 4 10 6 1 6 -6 1 -15 -4 -18 -9z"/>
<path d="M1208 601 c-3 -18 -1 -34 3 -36 11 -7 19 37 10 53 -6 11 -10 6 -13
-17z"/>
<path d="M1390 615 c-11 -13 -10 -14 4 -9 9 3 16 10 16 15 0 13 -6 11 -20 -6z"/>
<path d="M1950 620 c-9 -6 -10 -10 -3 -10 6 0 15 5 18 10 8 12 4 12 -15 0z"/>
<path d="M3393 612 c-9 -15 -8 -19 3 -19 8 0 14 9 14 19 0 10 -1 18 -3 18 -1
0 -7 -8 -14 -18z"/>
<path d="M1060 614 c0 -5 7 -18 15 -28 8 -11 15 -16 15 -10 0 5 -7 18 -15 28
-8 11 -15 16 -15 10z"/>
<path d="M1094 598 c3 -13 6 -26 6 -30 0 -5 5 -8 11 -8 6 0 8 9 4 21 -6 16 -4
20 6 13 12 -6 12 -5 0 9 -19 24 -34 21 -27 -5z"/>
<path d="M2100 611 c0 -10 19 -25 25 -20 1 2 -3 10 -11 17 -8 7 -14 8 -14 3z"/>
<path d="M1041 587 c0 -16 -5 -26 -11 -22 -5 3 -10 1 -10 -4 0 -6 8 -11 18
-12 9 0 26 -2 37 -4 19 -4 19 -3 -2 13 -11 9 -23 26 -26 37 -3 15 -5 13 -6 -8z"/>
<path d="M1810 585 c0 -14 -6 -25 -12 -25 -9 0 -10 -3 -2 -8 6 -4 14 -14 17
-22 3 -8 6 6 6 33 1 26 -1 47 -4 47 -3 0 -5 -11 -5 -25z"/>
<path d="M1996 594 c-9 -24 -2 -26 12 -4 7 11 8 20 3 20 -5 0 -12 -7 -15 -16z"/>
<path d="M2186 602 c-3 -5 1 -9 9 -9 8 0 12 4 9 9 -3 4 -7 8 -9 8 -2 0 -6 -4
-9 -8z"/>
<path d="M2462 590 c0 -14 2 -19 5 -12 2 6 2 18 0 25 -3 6 -5 1 -5 -13z"/>
<path d="M2763 575 c0 -22 2 -30 4 -17 2 12 2 30 0 40 -3 9 -5 -1 -4 -23z"/>
<path d="M1580 590 c0 -5 7 -10 15 -10 8 0 15 5 15 10 0 6 -7 10 -15 10 -8 0
-15 -4 -15 -10z"/>
<path d="M2291 584 c0 -11 3 -14 6 -6 3 7 2 16 -1 19 -3 4 -6 -2 -5 -13z"/>
<path d="M2325 589 c-4 -6 -5 -12 -2 -15 2 -3 7 2 10 11 7 17 1 20 -8 4z"/>
<path d="M2841 584 c0 -11 3 -14 6 -6 3 7 2 16 -1 19 -3 4 -6 -2 -5 -13z"/>
<path d="M3030 586 c0 -8 4 -17 9 -20 5 -4 7 3 4 14 -6 23 -13 26 -13 6z"/>
<path d="M3111 584 c0 -11 3 -14 6 -6 3 7 2 16 -1 19 -3 4 -6 -2 -5 -13z"/>
<path d="M3142 580 c0 -14 2 -19 5 -12 2 6 2 18 0 25 -3 6 -5 1 -5 -13z"/>
<path d="M1400 565 c0 -14 4 -25 9 -25 4 0 6 11 3 25 -2 14 -6 25 -8 25 -2 0
-4 -11 -4 -25z"/>
<path d="M1870 579 c0 -5 5 -7 10 -4 6 3 10 8 10 11 0 2 -4 4 -10 4 -5 0 -10
-5 -10 -11z"/>
<path d="M1914 575 c-4 -8 -15 -15 -26 -15 -11 0 -26 -7 -34 -15 -9 -9 -11
-15 -4 -15 6 0 9 -4 5 -9 -3 -5 -1 -13 5 -16 6 -4 10 -3 9 2 -5 27 3 43 21 43
11 0 23 7 26 15 4 8 10 12 15 9 5 -3 9 0 9 5 0 16 -20 13 -26 -4z"/>
<path d="M3560 580 c0 -5 5 -10 10 -10 6 0 10 5 10 10 0 6 -4 10 -10 10 -5 0
-10 -4 -10 -10z"/>
<path d="M740 560 c0 -11 2 -20 4 -20 2 0 6 9 9 20 3 11 1 20 -4 20 -5 0 -9
-9 -9 -20z"/>
<path d="M2232 561 c7 -9 14 -18 15 -20 2 -2 3 5 3 16 0 11 -7 20 -15 20 -12
0 -12 -3 -3 -16z"/>
<path d="M2916 563 c-6 -14 -5 -15 5 -6 7 7 10 15 7 18 -3 3 -9 -2 -12 -12z"/>
<path d="M765 560 c-3 -6 1 -7 9 -4 18 7 21 14 7 14 -6 0 -13 -4 -16 -10z"/>
<path d="M1349 557 c11 -14 11 -17 0 -17 -9 -1 -8 -4 4 -11 10 -6 21 -8 25 -4
8 8 -11 38 -29 44 -12 4 -12 2 0 -12z"/>
<path d="M1500 559 c-23 -6 -23 -7 -3 -8 12 -1 27 -9 32 -18 12 -20 13 -7 3
18 -5 11 -14 13 -32 8z"/>
<path d="M1571 570 c-2 -3 -4 -15 -5 -27 -2 -19 2 -23 23 -22 14 1 40 5 56 10
24 7 21 7 -17 4 -42 -4 -47 -2 -51 18 -2 12 -5 20 -6 17z"/>
<path d="M1745 562 c-16 -11 -17 -42 -3 -42 8 0 15 11 16 25 2 27 2 28 -13 17z"/>
<path d="M1945 560 c-3 -5 -1 -10 4 -10 6 0 11 5 11 10 0 6 -2 10 -4 10 -3 0
-8 -4 -11 -10z"/>
<path d="M1623 553 c9 -2 25 -2 35 0 9 3 1 5 -18 5 -19 0 -27 -2 -17 -5z"/>
<path d="M2000 530 c0 -18 -4 -29 -10 -25 -5 3 -10 1 -10 -4 0 -6 4 -11 9 -11
5 0 18 -3 28 -7 15 -6 16 -4 6 8 -7 8 -10 24 -7 36 3 11 1 24 -5 27 -7 5 -11
-4 -11 -24z"/>
<path d="M2120 550 c-13 -8 -12 -10 3 -10 9 0 17 5 17 10 0 12 -1 12 -20 0z"/>
<path d="M1692 529 c-9 -14 -19 -18 -35 -14 -18 5 -19 4 -6 -4 21 -13 71 9 60
27 -4 7 -11 5 -19 -9z"/>
<path d="M1965 540 c-4 -6 -11 -8 -16 -5 -5 4 -9 2 -9 -4 0 -19 16 -19 28 0 7
10 10 19 8 19 -3 0 -8 -5 -11 -10z"/>
<path d="M2145 530 c-4 -11 -11 -17 -17 -14 -7 5 -8 2 -3 -6 6 -10 11 -9 22 5
13 19 17 35 9 35 -3 0 -8 -9 -11 -20z"/>
<path d="M2173 534 c1 -22 24 -30 24 -8 0 7 -4 11 -8 8 -4 -2 -9 2 -12 8 -3 7
-5 4 -4 -8z"/>
<path d="M2620 540 c0 -6 7 -10 15 -10 8 0 15 2 15 4 0 2 -7 6 -15 10 -8 3
-15 1 -15 -4z"/>
<path d="M2321 524 c0 -11 3 -14 6 -6 3 7 2 16 -1 19 -3 4 -6 -2 -5 -13z"/>
<path d="M1400 521 c13 -10 13 -12 1 -20 -20 -13 -22 -37 -2 -38 21 -2 23 59
1 64 -13 4 -13 3 0 -6z"/>
<path d="M2034 517 c3 -10 6 -23 6 -28 0 -5 12 -8 28 -8 18 1 21 3 9 6 -11 3
-16 11 -13 19 3 7 1 16 -4 19 -6 4 -10 0 -10 -7 0 -10 -3 -9 -11 2 -9 12 -10
12 -5 -3z"/>
<path d="M2086 522 c-3 -5 1 -9 9 -9 8 0 12 4 9 9 -3 4 -7 8 -9 8 -2 0 -6 -4
-9 -8z"/>
<path d="M2234 522 c3 -2 22 -7 43 -9 20 -2 34 -1 30 3 -4 5 -23 9 -43 10 -19
1 -33 -1 -30 -4z"/>
<path d="M2920 520 c-1 -8 -2 -19 -1 -24 1 -5 -3 -12 -10 -16 -6 -4 -7 -10 -2
-13 18 -11 29 8 22 38 -4 17 -8 23 -9 15z"/>
<path d="M3060 515 c-7 -9 -8 -15 -2 -15 5 0 12 7 16 15 3 8 4 15 2 15 -2 0
-9 -7 -16 -15z"/>
<path d="M3216 522 c-3 -5 1 -9 9 -9 8 0 12 4 9 9 -3 4 -7 8 -9 8 -2 0 -6 -4
-9 -8z"/>
<path d="M1881 504 c0 -11 3 -14 6 -6 3 7 2 16 -1 19 -3 4 -6 -2 -5 -13z"/>
<path d="M3280 502 c0 -12 4 -22 9 -22 10 0 9 26 -2 36 -4 4 -7 -2 -7 -14z"/>
<path d="M1700 499 c0 -5 5 -7 10 -4 6 3 10 8 10 11 0 2 -4 4 -10 4 -5 0 -10
-5 -10 -11z"/>
<path d="M1743 503 c9 -2 23 -2 30 0 6 3 -1 5 -18 5 -16 0 -22 -2 -12 -5z"/>
<path d="M1807 493 c3 -7 0 -13 -7 -13 -6 0 -8 -4 -5 -10 12 -19 35 -10 35 13
0 14 -6 24 -14 24 -8 0 -12 -6 -9 -14z"/>
<path d="M2535 500 c-3 -5 -1 -10 4 -10 6 0 11 5 11 10 0 6 -2 10 -4 10 -3 0
-8 -4 -11 -10z"/>
<path d="M2950 499 c0 -5 5 -7 10 -4 6 3 10 8 10 11 0 2 -4 4 -10 4 -5 0 -10
-5 -10 -11z"/>
<path d="M3385 500 c3 -5 8 -10 11 -10 2 0 4 5 4 10 0 6 -5 10 -11 10 -5 0 -7
-4 -4 -10z"/>
<path d="M2113 494 c9 -16 -19 -38 -38 -30 -8 3 -15 1 -15 -4 0 -14 37 -13 46
1 4 8 9 7 15 -2 6 -10 8 -8 6 8 -2 12 -7 26 -12 30 -4 5 -5 3 -2 -3z"/>
<path d="M2150 490 c-9 -6 -10 -10 -3 -10 6 0 15 5 18 10 8 12 4 12 -15 0z"/>
<path d="M2195 490 c3 -5 8 -10 11 -10 2 0 4 5 4 10 0 6 -5 10 -11 10 -5 0 -7
-4 -4 -10z"/>
<path d="M2235 464 c0 -19 -5 -40 -12 -46 -14 -11 -15 -10 -17 24 0 12 -6 23
-12 25 -7 2 -10 -6 -7 -24 4 -22 2 -25 -6 -13 -6 8 -11 10 -11 4 0 -18 22 -31
58 -36 30 -4 33 -3 27 16 -4 12 -7 33 -7 48 1 15 -2 30 -7 32 -4 3 -7 -11 -6
-30z"/>
<path d="M2762 475 c0 -16 2 -22 5 -12 2 9 2 23 0 30 -3 6 -5 -1 -5 -18z"/>
<path d="M1755 480 c-3 -5 -1 -10 4 -10 6 0 11 5 11 10 0 6 -2 10 -4 10 -3 0
-8 -4 -11 -10z"/>
<path d="M1959 483 c-1 -5 -1 -12 0 -17 1 -5 -6 -6 -16 -4 -26 7 -26 -35 -1
-51 11 -7 23 -10 26 -7 3 3 0 6 -6 6 -7 0 -12 10 -11 23 0 21 1 21 9 2 7 -16
9 -12 8 18 -2 34 -6 48 -9 30z"/>
<path d="M3112 470 c0 -14 2 -19 5 -12 2 6 2 18 0 25 -3 6 -5 1 -5 -13z"/>
<path d="M2320 470 c0 -5 7 -7 15 -4 8 4 15 8 15 10 0 2 -7 4 -15 4 -8 0 -15
-4 -15 -10z"/>
<path d="M2404 445 c1 -21 6 -35 13 -35 13 0 13 26 0 47 -4 6 -1 14 5 16 9 4
8 6 -3 6 -11 1 -15 -8 -15 -34z"/>
<path d="M2540 464 c0 -8 5 -12 10 -9 6 4 8 11 5 16 -9 14 -15 11 -15 -7z"/>
<path d="M2950 472 c0 -5 7 -9 15 -9 8 0 12 4 9 9 -3 4 -9 8 -15 8 -5 0 -9 -4
-9 -8z"/>
<path d="M2146 462 c-2 -4 -1 -14 5 -22 7 -12 9 -10 9 8 0 23 -5 28 -14 14z"/>
<path d="M2364 445 c0 -20 3 -22 16 -12 8 6 17 12 18 13 2 1 -5 7 -15 12 -16
9 -19 7 -19 -13z"/>
<path d="M2670 459 c0 -5 5 -7 10 -4 6 3 10 8 10 11 0 2 -4 4 -10 4 -5 0 -10
-5 -10 -11z"/>
<path d="M3010 461 c0 -7 -4 -10 -9 -7 -5 3 -8 -5 -7 -19 0 -14 2 -25 4 -25 6
0 22 53 17 58 -3 3 -5 0 -5 -7z"/>
<path d="M3173 455 c-17 -19 -16 -25 2 -25 8 0 15 9 15 20 0 23 -1 24 -17 5z"/>
<path d="M820 440 c0 -5 5 -10 11 -10 5 0 7 5 4 10 -3 6 -8 10 -11 10 -2 0 -4
-4 -4 -10z"/>
<path d="M1400 440 c-18 -12 -2 -12 25 0 13 6 15 9 5 9 -8 0 -22 -4 -30 -9z"/>
<path d="M2780 440 c0 -5 4 -10 9 -10 6 0 13 5 16 10 3 6 -1 10 -9 10 -9 0
-16 -4 -16 -10z"/>
<path d="M1810 430 c0 -5 5 -10 11 -10 5 0 7 5 4 10 -3 6 -8 10 -11 10 -2 0
-4 -4 -4 -10z"/>
<path d="M2707 375 c-4 -8 -1 -17 6 -21 7 -4 9 -4 5 1 -4 4 -3 14 3 22 7 8 8
13 1 13 -5 0 -12 -7 -15 -15z"/>
</g>
</svg>
